<?xml version="1.0" standalone="no"?>
<!DOCTYPE svg PUBLIC "-//W3C//DTD SVG 1.1//EN" "http://www.w3.org/Graphics/SVG/1.1/DTD/svg11.dtd" >
<!--
2013-9-30: Created.
-->
<svg>
<metadata>
Created by iconfont
</metadata>
<defs>

<font id="iconfont" horiz-adv-x="1024" >
  <font-face
    font-family="iconfont"
    font-weight="500"
    font-stretch="normal"
    units-per-em="1024"
    ascent="896"
    descent="-128"
  />
    <missing-glyph />
    
    <glyph glyph-name="shanchu" unicode="&#58881;" d="M736.032 61.632c0-15.36-14.208-27.808-32-27.808-17.664 0-32 12.608-32 27.808V537.344c0 15.392 14.208 27.84 32 27.84 17.664 0 32-12.608 32-27.84v-475.712z m-192 0c0-15.36-14.208-27.808-32-27.808-17.664 0-32 12.608-32 27.808V537.344c0 15.392 14.208 27.84 32 27.84 17.664 0 32-12.608 32-27.84v-475.712z m-192 0c0-15.36-14.208-27.808-32-27.808-17.664 0-32 12.608-32 27.808V537.344c0 15.392 14.208 27.84 32 27.84 17.664 0 32-12.608 32-27.84v-475.712z m528.224 676.192H672L655.52 803.68c-8.576 34.368-44.16 62.144-79.456 62.144H447.936c-35.584 0-70.912-27.84-79.488-62.144L352 737.824H143.712c-26.304 0-47.712-21.504-47.712-48 0-26.72 21.344-48 47.712-48h48.32V-30.08c0-35.648 28.48-64.096 63.68-64.096h512.576c34.944 0 63.744 28.704 63.744 64.096V641.824h48.224c26.336 0 47.744 21.472 47.744 48 0 26.688-21.376 48-47.744 48"  horiz-adv-x="1024" />

    
    <glyph glyph-name="xinjian" unicode="&#58883;" d="M632 795.9v-173c0-16.5 13.4-29.9 30-29.9h173.8c13.4 0 20.1 16.1 10.6 25.5l-188.8 188c-9.4 9.4-25.6 2.8-25.6-10.6zM842 518.4H647c-49.7 0-90 40.1-90 89.6V802.1c0 16.5-13.4 29.9-30 29.9H212c-33.1 0-60-26.7-60-59.7v-776.5c0-33 26.9-59.7 60-59.7h600c33.1 0 60 26.7 60 59.7V488.5c0 16.5-13.4 29.9-30 29.9zM624.5 257.1h-75v-74.7c0-20.5-16.9-37.3-37.5-37.3s-37.5 16.8-37.5 37.3v74.7h-75c-20.6 0-37.5 16.8-37.5 37.3 0 20.5 16.9 37.3 37.5 37.3h75v74.7c0 20.5 16.9 37.3 37.5 37.3s37.5-16.8 37.5-37.3v-74.7h75c20.6 0 37.5-16.8 37.5-37.3 0-20.5-16.9-37.3-37.5-37.3z"  horiz-adv-x="1024" />

    
    <glyph glyph-name="quotationso" unicode="&#58887;" d="M929.944 35.271h244.148l0.284 82.963 161.47-113.493-161.47-106.951-0.095 76.42H929.944c-16.877 0-30.53 13.654-30.53 30.53-0.095 16.878 13.653 30.531 30.53 30.531z m375.372 216.083h-244.149l-0.284 82.963-161.564-113.493 161.47-106.951 0.094 76.42h244.338c16.877 0 30.53 13.654 30.53 30.53s-13.558 30.531-30.435 30.531zM864.332-51.959h-265.86V23.8h224.615a311.701 311.701 0 0 0-19.721 109.226c0 5.69 0.19 11.283 0.474 16.877H563.2c-15.17 0-30.246 5.025-30.246 20.101 2.56 17.636 15.076 30.34 30.246 30.34h247.561a309.328 309.328 0 0 0 60.113 126.104H563.2c-15.17 0-30.246 12.61-30.246 30.246 2.56 15.17 15.076 20.196 30.246 20.196h358.02c53.097 42.192 120.32 67.413 193.423 67.413 4.551 0 9.102-0.095 13.653-0.284v235.52h50.442v-241.873c17.35-3.603 34.228-8.723 50.441-15.17V669.487c0 32.806-25.22 60.587-58.026 60.587H1128.2v65.517c0.095 32.806-25.125 60.587-58.026 60.587H479.953c-32.806 0-58.027-27.781-58.027-60.587v-711.3c0-32.807 25.22-60.587 58.027-60.587h68.077v-60.587c0-32.711 25.315-65.517 58.026-65.517h304.925c-17.257 14.98-32.996 31.953-46.65 50.441zM737.28 730.074h232.107c15.075 0 27.78-5.025 27.78-20.195 0-17.636-12.61-30.246-27.78-30.246H737.28c-15.17 0-27.78 12.61-27.78 30.246-2.466 15.17 12.61 20.195 27.78 20.195zM563.2 553.434h406.187c15.075 0 27.78-5.025 27.78-20.195 0-17.636-12.61-30.246-27.78-30.246H563.2c-15.17 0-30.246 12.61-30.246 30.246 2.465 15.17 15.076 20.195 30.246 20.195z"  horiz-adv-x="1820" />

    
    <glyph glyph-name="excel" unicode="&#58889;" d="M920.992 755.04h-324.16V831.424L64 749.184V28.32l532.832-91.776V49.76h324.16A37.184 37.184 0 0 1 960 84.832V720a37.184 37.184 0 0 1-39.008 35.04z m5.12-676.032H595.744l-0.544 60.448h79.584v70.4h-80.192l-0.384 41.6h80.576v70.4H593.6l-0.384 41.6h81.568v70.4H592.96v41.6h81.824v70.4H592.96v41.6h81.824v70.4H592.96v64h333.152zM719.584 657.952H857.92v-70.4H719.584z m0-112.032H857.92v-70.4H719.584z m0-112.032H857.92v-70.4H719.584z m0-112.032H857.92v-70.4H719.584z m0-112.032H857.92v-70.4H719.584zM203.104 554.464l68.672 3.936 43.168-118.688 51.008 123.584 68.672 3.936-83.392-168.512 83.392-168.928-72.608 4.896-49.024 128.768-49.056-123.872-66.72 5.888 77.504 149.216-71.616 159.776z"  horiz-adv-x="1024" />

    
    <glyph glyph-name="dingdanqueren_" unicode="&#58890;" d="M641.996 754.357H206.768c-28.732 0-52.107-23.375-52.107-52.107v-725.692c0-28.712 23.375-52.07 52.107-52.07h610.464c28.732 0 52.108 23.358 52.108 52.07v562.18L641.996 754.357zM279.537 575.858V751.596h38.75v-175.737c0-11.894 9.676-21.57 21.57-21.57h40.945c11.915 0 21.607 9.676 21.607 21.57v68.229h38.75v-68.229c0-33.261-27.076-60.32-60.357-60.32h-40.945c-33.26-0.001-60.32 27.059-60.32 60.319z m200.349-489.506L316.771 239.573l53.061 56.486 105.184-98.804 176.779 197.976 57.809-51.619-229.718-257.26z m165.695 420.52c-12.715 0-23.046 10.331-23.046 23.046V705.92l209.871-199.048H645.581zM318.287 754.357v28.836c0 11.894 9.676 21.569 21.57 21.569h40.945c11.915 0 21.607-9.676 21.607-21.569v-35.836h38.75v35.836c0 33.26-27.076 60.319-60.357 60.319h-40.945c-33.261 0-60.32-27.059-60.32-60.319v-28.836h38.75z"  horiz-adv-x="1024" />

    
    <glyph glyph-name="PDF" unicode="&#58891;" d="M937.949621 594.693418v4.141996a30.300973 30.300973 0 0 1-7.601993 13.777988L654.023874 888.393157A30.393973 30.393973 0 0 1 640.215886 895.99715H177.245297a91.461919 91.461919 0 0 1-64.729942-26.126977A90.871919 90.871919 0 0 1 85.334379 805.69923v-842.672251a91.383919 91.383919 0 0 1 26.685976-64.386943 91.135919 91.135919 0 0 1 64.496943-26.639976H847.449702c24.140979 0 47.367958 9.619991 64.526943 26.623976a90.762919 90.762919 0 0 1 26.685976 64.387943V591.248421c-0.201 1.117999-0.403 2.219998-0.713 3.444997zM375.994121 227.636744a88.404921 88.404921 0 0 0-60.383946-18.787983H291.590196v-73.882935h-45.45996V348.158637h74.022934c52.797953 0 79.421929-22.65198 79.85693-68.03394a64.713942 64.713942 0 0 0-24.017979-52.471953z m212.293811-62.850944a115.695897 115.695897 0 0 0-82.447927-29.819974h-74.006934V348.158637h74.006934c76.597932-0.42 114.904898-35.203969 114.904898-104.307907a104.214907 104.214907 0 0 0-32.456971-79.04993z m189.578832 145.77987h-76.613932v-55.078951h70.763937v-36.925967h-70.763937v-84.246925h-45.45996V347.522637H777.849764v-36.925967z m-114.811898 310.239725v172.419846l171.937847-172.419846H663.053866zM562.515955 287.229691a63.952943 63.952943 0 0 0 19.207983-49.259956 71.632936 71.632936 0 0 0-19.207983-51.820954 64.076943 64.076943 0 0 0-50.579955-19.191983H485.670023V304.498676h24.342979a70.484937 70.484937 0 0 0 52.502953-17.267985z m-240.111787 19.191983c26.034977 0 39.051965-11.30999 39.051966-33.89997 0-22.60598-13.234988-33.91597-39.702965-33.91597h-19.207983v67.81594h19.859982z"  horiz-adv-x="1024" />

    
    <glyph glyph-name="PDF1" unicode="&#58892;" d="M245.648 518.272c-0.336-37.472-0.56-74.848 1.696-112.208 21.792 2.592 49.888 0.784 62.32 23.376a82.4 82.4 0 0 1-1.472 73.264c-14.464 20.656-41.104 16.592-62.544 15.568zM1023.104 754.896a40.64 40.64 0 0 1-45.152 45.152c-124.848 2.032-249.024 0-373.2 0.672V896H535.2C356.832 863.488 178.368 832.448 0 800.496V-32.72c177.456-31.84 354.912-62.208 532.032-94.832h72.928v95.28h349.168c19.872 0 41.76-1.136 58.816 11.296 13.552 21.328 10.16 47.984 11.296 72.016-1.136 234.576 0.768 469.264-1.136 703.856zM326.128 356.624c-24.72-12.976-53.168-11.296-80.032-10.272v-130.944l-65.472 5.536c-0.896 119.216-1.136 238.528 0 357.744 59.264-2.816 130.944 24.048 180.624-21.328 46.96-58.496 34.528-165.856-35.12-200.736z m662.432-353.68H604.736v70.224H947.92V120.8H604.736V765.056H988.56v-762.112zM645.488 366.336H947.92v-47.632H645.488z m0-163.696H947.92v-47.632H645.488z m0 81.856H947.92v-47.632H645.488z m48.88 174.624a17.43 17.43 0 0 1 9.824-2.592c16.368 0 35.216 18.4 55.536 54.416a460.48 460.48 0 0 0 77.664 24.832 84.08 84.08 0 0 1 48.32-19.648l0.112-0.448c11.056 0 32.624 0 32.624 22.576 0.672 8.576-3.952 22.912-34.656 23.6a221.56 221.56 0 0 1-41.088-4.512 196.736 196.736 0 0 0-40.752 52.496c11.056 36.688 11.744 62.08 3.28 73.376a21.888 21.888 0 0 1-17.04 8.464 20.672 20.672 0 0 1-20.208-10.496c-11.744-19.648 5.2-58.256 13.088-73.936a467.088 467.088 0 0 0-34.656-81.28c-61.968-26.528-63.328-43.232-63.328-49.104a19.406 19.406 0 0 1 11.28-17.744z m190.16 84.544c13.728-0.032 16.544-4.176 16.992-6.768a26.24 26.24 0 0 0-13.888-1.584 50.688 50.688 0 0 0-20.992 6.656 65.312 65.312 0 0 0 17.888 1.696z m-95.44 129.952a4.288 4.288 0 0 0 2.816 0.672h2.144a53.344 53.344 0 0 0-0.784-34.544 52.352 52.352 0 0 0-4.176 33.872z m0.448-95.728l0.672-0.672v1.248a195.864 195.864 0 0 1 23.712-30.48h-1.808l0.672-0.56a346.27 346.27 0 0 1-40.192-12.64v1.472l-1.136-0.672c6.784 13.856 12.656 27.968 18.08 42.304z m-62.656-86.48a45.024 45.024 0 0 0-23.936-16.816l-2.256-0.56a56.495 56.495 0 0 0 26.192 17.376z"  horiz-adv-x="1024" />

    
    <glyph glyph-name="xindingdan--" unicode="&#58895;" d="M345.289716 756.363636h232.727273a50.65697 50.65697 0 0 1 50.566465 50.566465v1.887677a50.65697 50.65697 0 0 1-50.566465 50.553535h-232.727273A50.65697 50.65697 0 0 1 294.787898 808.817778v-1.887677A50.540606 50.540606 0 0 1 345.289716 756.363636zM450.016989 144.27798H248.630322V208.549495h218.013738c40.080808 101.986263 139.170909 174.312727 255.366464 174.312727a273.19596 273.19596 0 0 0 115.355152-25.716363V758.949495a70.878384 70.878384 0 0 1-70.95596 70.94303h-91.694545V828.767677a96.672323 96.672323 0 0 0-96.672323-96.659394h-232.727273A96.659394 96.659394 0 0 0 248.630322 828.767677v1.021414H156.935777A70.865455 70.865455 0 0 1 85.979817 758.949495v-704.129293a70.878384 70.878384 0 0 1 70.95596-70.95596h320.646465a271.851313 271.851313 0 0 0-30.164041 124.599596 275.833535 275.833535 0 0 0 2.598788 35.814142zM248.630322 563.717172h425.903839v-64.271515H248.630322z m0-177.55798h223.844849v-64.271515H248.630322zM718.868706 346.905859a219.138586 219.138586 0 1 1 219.151515-219.138586A219.138586 219.138586 0 0 1 718.868706 346.905859z m25.858586-247.583031v-129.292929h-51.717172v129.292929H563.717191v51.717172h129.292929v129.292929h51.717172v-129.292929h129.292929v-51.717172z"  horiz-adv-x="1024" />

    
    <glyph glyph-name="weitijiaodingdankexiugai" unicode="&#58896;" d="M300.249223 776.729697h269.469744a58.639611 58.639611 0 0 1 58.549787 58.534817v2.185699A58.654581 58.654581 0 0 1 569.748908 895.985029h-269.469744a58.669552 58.669552 0 0 1-58.579729-58.534816v-2.185699a58.519846 58.519846 0 0 1 58.549788-58.534817zM670.575504-51.874797a389.35384 389.35384 0 0 1-48.774023 40.779755c-12.665078 9.221853-22.006696 3.712694-26.318212-7.73977-6.422362-17.126299-36.034093-109.165188-36.034093-109.165188s87.577667 36.183798 105.811786 44.073274 28.384146 9.715881 5.314542 32.051929zM972.291795 236.128478c-9.67097 9.4015-56.603617 45.300858-63.639771 52.396894s-17.006535 7.305624-23.952867-2.21564-219.692695-217.986053-240.3221-238.016637c-14.536396-14.10225-11.976433-20.494671-0.763498-29.941083 12.500402-10.479379 44.312802-37.516177 60.765428-51.798073 12.45549-10.79376 26.692475-9.356588 37.33653 0.284441 8.697885 7.874505 229.52834 223.061066 241.923948 237.956755s-1.691671 21.916873-11.34767 31.333343zM1039.61432 355.308957c-40.734843 30.030906-49.552492 24.027719-63.86433 13.233959a600.528296 600.528296 0 0 1-46.648207-40.420462c-8.188886-7.784682-13.27887-7.799652 1.631789-21.078522s45.645181-40.270756 63.475096-58.90908c13.248929-13.877692 16.467596-13.787869 23.473808-7.679888 8.00924 6.991243 15.509481 11.781816 38.549144 33.354366 23.833102 22.380959 24.117542 51.468721-16.6173 81.499627zM869.998086 769.379161a82.068508 82.068508 0 0 1-82.158331 82.158331h-106.156109v-1.182673a111.934738 111.934738 0 0 0-111.934738-111.934737h-269.469744a111.934738 111.934738 0 0 0-111.949709 111.934737v1.182673H82.158376A82.068508 82.068508 0 0 1 0.000045 769.379161v-815.235801a82.068508 82.068508 0 0 1 64.253563-80.182219v-1.961141H369.473006l500.52508 500.51011zM447.499467 57.739507H188.329455v74.418561h259.170012z m0 205.590444H188.329455V337.748512h259.170012z m233.974591 205.605415H188.329455v74.418562h493.144603z"  horiz-adv-x="1072" />

    
    <glyph glyph-name="dingdanchaxun" unicode="&#58898;" d="M335.363 764.988h225.022c26.843 0 48.881 21.873 48.881 48.882v1.823c0 26.843-21.872 48.882-48.881 48.882H335.363c-26.844 0-48.882-21.873-48.882-48.882v-1.823c0-27.009 21.873-48.882 48.882-48.882zM436.606 173.228H241.908v62.138h210.771c38.774 98.592 134.55 168.518 246.894 168.518 39.934 0 77.548-9.113 111.517-24.855V767.432c0 37.945-30.655 68.6-68.6 68.6h-88.65v-0.994c0-51.533-41.757-93.455-93.455-93.455H335.363c-51.533 0-93.455 41.756-93.455 93.455v0.994h-88.65c-37.946 0-68.6-30.655-68.6-68.6v-680.7c0-37.945 30.654-68.6 68.6-68.6h310.026c-18.559 36.123-29.163 77.051-29.163 120.465 0 11.765 0.994 23.198 2.485 34.631z m-194.698 405.47h411.766v-62.137H241.908v62.138z m0-171.666h216.405v-62.137H241.908v62.137zM836.003 30.502c28.997 35.46 45.236 79.703 45.236 126.762 0 110.356-89.81 200.332-200.332 200.332s-200.333-89.81-200.333-200.332S570.55-43.07 680.907-43.07c44.905 0 87.324 14.582 122.784 42.088 1.326 0.994 2.486 2.32 3.811 3.314l101.41-101.409 28.334 28.335-101.243 101.243z m-56.836 0.166c-28.334-22.038-62.303-33.637-98.26-33.637-88.319 0-160.233 71.914-160.233 160.233s71.914 160.232 160.233 160.232S841.14 245.582 841.14 157.264c0-49.876-22.702-95.941-61.973-126.596z"  horiz-adv-x="1024" />

    
    <glyph glyph-name="youfanye" unicode="&#58901;" d="M307.2-25.498a51.098 51.098 0 0 1 36.25 15.002l358.4 358.349a51.2 51.2 0 0 1 0 72.397l-358.4 358.4a51.2 51.2 0 0 1-72.448-72.397L593.203 384 271.002 61.952a51.2 51.2 0 0 1 36.198-87.45z"  horiz-adv-x="1024" />

    
    <glyph glyph-name="zuofanye" unicode="&#58902;" d="M716.8-25.498a51.098 51.098 0 0 0-36.25 15.002l-358.4 358.349a51.2 51.2 0 0 0 0 72.397l358.4 358.4a51.2 51.2 0 0 0 72.448-72.397L430.797 384l322.201-322.15a51.2 51.2 0 0 0-36.198-87.348z"  horiz-adv-x="1024" />

    
    <glyph glyph-name="qidian" unicode="&#58914;" d="M512 824c-197.4 0-358-159.79-358-356.22C154 283 427-0.3 457.77-31.58 468.5-47 488.24-56 512-56c20.21 0 36.54 6.86 51.46 21.61C566.53-31.32 870 273 870 467.78 870 664.21 709.4 824 512 824z m0-458.72c-72.94 0-133.69 60.45-133.69 133s60.74 133 133.69 133 133.65-60.4 133.65-133-60.71-133-133.65-133z"  horiz-adv-x="1024" />

    
    <glyph glyph-name="tujing" unicode="&#58923;" d="M650.18 429.49c0 76.86-62.81 138-138.18 138-76.94 0-138.18-62.74-138.18-138v-2.68a132.4 132.4 0 0 1 27.08-77.27l112.67-149.06 106.53 141a147.42 147.42 0 0 1 28.72 68.65 142.29 142.29 0 0 1 1.35 19.39M510.43 358.9c-37.69 0-69.09 31.37-69.09 69s31.4 69 69.09 69 69.09-31.37 69.09-69a68.65 68.65 0 0 0-69.09-69M685.72 165.89c-50.33-38.47-110.81-58.8-174.9-58.8C354.3 107.08 227 231.31 227 384a273 273 0 0 0 2.51 36.92h37.66a6.32 6.32 0 0 1 5 10.21l-54.4 69.46a6.33 6.33 0 0 1-10 0l-54.4-69.46a6.32 6.32 0 0 1 5-10.21H196a306.3 306.3 0 0 1-2.24-36.92 302.33 302.33 0 0 1 25-120.83 308.75 308.75 0 0 1 68-98.57 316.46 316.46 0 0 1 100.76-66.37 322.09 322.09 0 0 1 318.38 41.31 16.59 16.59 0 1 1-20.18 26.35zM865.66 374.16h-38c0.11 3.28 0.18 6.56 0.18 9.84a302.34 302.34 0 0 1-25 120.83 308.76 308.76 0 0 1-68 98.57 316.47 316.47 0 0 1-100.76 66.37 322.13 322.13 0 0 1-316.58-39.94 16.59 16.59 0 1 1 20-26.49c50 37.67 109.94 57.58 173.29 57.58 156.51 0 283.84-124.22 283.84-276.92 0-3.28-0.07-6.56-0.19-9.84h-37.58a6.32 6.32 0 0 1-5-10.21l54.4-69.46a6.33 6.33 0 0 1 10 0l54.4 69.46a6.32 6.32 0 0 1-5 10.21z"  horiz-adv-x="1024" />

    
    <glyph glyph-name="zhongdian" unicode="&#58931;" d="M512 744c-196.45 0-360-163.54-360-360 0-196.32 163.59-360 360-360s360 163.67 360 360c0 196.46-163.56 360-360 360z m0-494.38c-73.33 0-134.4 61.09-134.4 134.37S438.69 518.38 512 518.38s134.36-61 134.36-134.39S585.33 249.62 512 249.62z"  horiz-adv-x="1024" />

    
    <glyph glyph-name="qingchu" unicode="&#58957;" d="M758.15 535l177.59 177.11a65.54 65.54 0 1 1-92.57 92.8l-177.78-177.3-6.41-0.75c-68.32 39.61-147.49 39.42-208.35-18.67a4.72 4.72 0 0 1-0.09-6.6L732.1 320.16a4.73 4.73 0 0 1 6.6 0.1c58 60.92 58.23 140 18.68 208.23 0.19 2.45 0.48 4.06 0.76 6.51z m0 0M284.16 678a56.05 56.05 0 1 1 56.05 56 56 56 0 0 1-56.05-56z m0 0M623.68 58.92a70.21 70.21 0 1 1 35.11 60.76 70.17 70.17 0 0 1-35.11-60.76z m0 0M780 133.05a38.22 38.22 0 1 1 38.22 38.19A38.21 38.21 0 0 1 780 133.05z m0 0M400.51 556.41l280.73-280.48a6.28 6.28 0 0 0 1-7.73c-15.15-24.2-91.68-152.69-112.16-322.45a2 2 0 0 0-2.93-1.51l-95.31 57.43a2 2 0 0 0-0.75 2.55c9 18.77 94.74 198.34 86 189.56-9.25-9.24-68.6-72.24-113-136.66l-25.57-35.18s-100.31 67.44-131.26 109.4c-0.48 0.66-0.57 1.22 0 1.79 20.38 24.71 126.45 162.5 126.45 162.5L233.3 187.56a1.89 1.89 0 0 0-2.46 0.38c-8.78 9.72-69 76.2-86.34 107.42a1.25 1.25 0 0 0 0.28 1.79c17.22 13.85 114.28 96.1 114.28 96.1l-136.73-48.38a2.1 2.1 0 0 0-2.45 0.94L69.3 440.69a1.84 1.84 0 0 0 1.13 2.83C94.49 448.33 295.3 490 392.77 557.26a5.92 5.92 0 0 0 7.74-0.85z m0 0"  horiz-adv-x="1024" />

    
    <glyph glyph-name="changfangxing" unicode="&#58960;" d="M72 694h880v-620H72z"  horiz-adv-x="1024" />

    
    <glyph glyph-name="yuan" unicode="&#58961;" d="M512 384m-440 0a440 440 0 1 1 880 0 440 440 0 1 1-880 0Z"  horiz-adv-x="1024" />

    
    <glyph glyph-name="xiala1" unicode="&#58996;" d="M473.5 109.7L108.8 601.1c-23.5 31.7-0.9 76.6 38.5 76.6h729.2c39.4 0 62-44.9 38.5-76.6L550.5 109.7c-19.1-25.9-57.9-25.9-77 0z"  horiz-adv-x="1024" />

    
    <glyph glyph-name="Activities" unicode="&#58997;" d="M350.2 420c0-18.7-11.5-34-25.4-34-14 0-25.4 15.3-25.4 34v41.8c0 18.7 11.5 34 25.4 34 14 0 25.4-15.3 25.4-34V420z m374.4 0c0-18.7-11.5-34-25.4-34s-25.4 15.3-25.4 34v41.8c0 18.7 11.5 34 25.4 34s25.4-15.3 25.4-34V420z m0 0M276.8 490.1v4.7c0 19.1 15.3 34.8 34 34.8h27.1c18.7 0 34-15.6 34-34.8v-5c0-19.2 4.7-21.1 23.6-21.1h237c17.3 0 19.1 2.4 19.1 18.3v7.8c0 19.1 15.3 34.8 34 34.8h26.5c18.7 0 34-15.6 34-34.8v-6.1c0-17.3 5.8-20 22.3-20h130.9c17.7 0 22.8 4.9 22.8 22.3v38.9c0 38.2-30.7 69.5-68 69.5h-684c-37.4 0-68-31.2-68-69.5v-36.4c0-19.5 5.7-24.7 26.8-24.7h123.6c19.6 0.1 24.3 2.3 24.3 21.3z m469.3-92v-7.4c0-19.1-15.3-34.8-34-34.8h-26.5c-18.7 0-34 15.6-34 34.8v7c0 15-4.1 19.2-19.4 19.2H396.4c-19.4 0-24.4-4.2-24.4-21.6v-4.5c0-19.1-15.3-34.8-34-34.8h-27.3c-18.7 0-34 15.7-34 34.8v2.8c0 20.3-5 23.2-23.6 23.2h-125c-20.7 0-26.1-5.3-26.1-26v-347.4c0-38.2 30.7-69.5 68-69.5h683.9c37.4 0 68 31.2 68 69.5V396c0 15.6-6.5 20.8-21 20.8H769.4c-18.5 0-23.3-3.1-23.3-18.7z m-377 237.7C391 695 446.8 736.9 512.4 736.9c65.5 0 121.4-42.1 143.3-101.1 0 0 4.6-19.5 31.6-19.5s26.9 19.5 26.9 19.5C690.3 726.9 609.1 794 512.4 794c-96.6 0-177.9-67.1-201.8-158.2 0 0-1.4-17 26.4-17 27.9 0 32.1 17 32.1 17z m0 0"  horiz-adv-x="1024" />

    
    <glyph glyph-name="ActiviesDone" unicode="&#58959;" d="M662 461.8V420c0-18.7 11.5-34 25.4-34 14 0 25.4 15.3 25.4 34v41.8c0 18.7-11.5 34-25.4 34-13.9 0-25.4-15.3-25.4-34zM287.6 461.8V420c0-18.7 11.5-34 25.4-34 14 0 25.4 15.3 25.4 34v41.8c0 18.7-11.5 34-25.4 34-13.9 0-25.4-15.3-25.4-34zM325.3 618.8c27.9 0 32.2 17 32.2 17 21.9 59.2 77.6 101.1 143.3 101.1 65.5 0 121.4-42.1 143.3-101.1 0 0 4.6-19.5 31.6-19.5s26.9 19.5 26.9 19.5C678.6 726.9 597.5 794 500.7 794c-96.6 0-177.9-67.1-201.8-158.2 0.1 0-1.4-17 26.4-17zM117.2 468.9h123.6c19.6 0 24.3 2.2 24.3 21.2v4.7c0 19.1 15.3 34.8 34 34.8h27.1c18.7 0 34-15.6 34-34.8v-5c0-19.2 4.7-21.1 23.6-21.1h237c17.3 0 19.1 2.4 19.1 18.3v7.8c0 19.1 15.3 34.8 34 34.8h26.5c18.7 0 34-15.6 34-34.8v-6.1c0-17.3 5.8-20 22.3-20h130.9c17.7 0 22.8 4.9 22.8 22.3v38.9c0 38.2-30.7 69.5-68 69.5H158.5c-37.4 0-68-31.2-68-69.5v-36.4c0-19.5 5.6-24.6 26.7-24.6zM583.7 137c0 107.1 86.9 194 194 194 51.3 0 97.9-19.9 132.5-52.4V396c0 15.6-6.5 20.8-21 20.8H757.7c-18.4 0-23.3-3.2-23.3-18.7v-7.4c0-19.1-15.3-34.8-34-34.8h-26.5c-18.7 0-34 15.6-34 34.8v7c0 15-4.1 19.2-19.4 19.2H384.8c-19.4 0-24.4-4.2-24.4-21.6v-4.5c0-19.1-15.3-34.8-34-34.8h-27.3c-18.7 0-34 15.7-34 34.8v2.8c0 20.3-5 23.2-23.6 23.2H116.4c-20.7 0-26.1-5.3-26.1-26v-347.4c0-38.2 30.7-69.5 68-69.5h514.1c-53.4 34.7-88.7 94.7-88.7 163.1zM780.5 133v-64.2c8.2 1 15 4.6 20.3 10.7 5.3 6.1 8 13.6 8 22.6 0 7.7-1.9 13.8-5.7 18.5-3.8 4.5-11.3 8.7-22.6 12.4zM748.6 204.7c-4.7-5.3-7.1-11.6-7.1-18.9 0-7.2 2-13.2 6-18 4-4.8 10.8-8.7 20.4-11.6v58.4c-8.1-1.3-14.5-4.6-19.3-9.9zM921.2 232.7c-30.8 46.6-83.6 77.3-143.6 77.3-95 0-172-77-172-172s77-172 172-172c59.8 0 112.4 30.5 143.2 76.8 18.2 27.3 28.8 60 28.8 95.2 0.1 35-10.4 67.6-28.4 94.7zM816.6 75.3c-8.4-8.9-19.3-13.6-32.7-14.2v-19.3h-11.3v19.1c-9.6 1.2-17.3 3.3-23.3 6.4-6 3.1-11.2 8.1-15.5 14.9-4.4 6.9-6.9 15.3-7.6 25.2l19.2 3.6c1.5-10.3 4.1-17.8 7.9-22.6 5.4-6.8 11.8-10.6 19.3-11.4v60.9c-7.9 1.5-15.9 4.5-24.1 9.1-6.1 3.4-10.8 8.1-14.1 14.1-3.3 6-4.9 12.9-4.9 20.5 0 13.6 4.8 24.6 14.5 33 6.4 5.7 16 9.1 28.7 10.4v9.1H784v-9.1c11.1-1.1 19.9-4.3 26.5-9.8 8.4-6.9 13.4-16.5 15.1-28.6l-19.8-3c-1.1 7.5-3.5 13.3-7.1 17.3-3.6 4-8.5 6.6-14.7 7.9v-55.1c9.6-2.4 16-4.3 19.1-5.6 6-2.6 10.8-5.8 14.6-9.6 3.8-3.8 6.6-8.2 8.7-13.4 2-5.2 3-10.8 3-16.8-0.2-13.1-4.4-24.1-12.8-33z"  horiz-adv-x="1024" />

    
    <glyph glyph-name="Dashboard1" unicode="&#58999;" d="M468.6 570.7L335 485.3l-54.3 43.3-6.4 4.8-6.8-3-118.4-51-0.4-0.2 10-30 111.4 48.2 55.4-43.9 7.4-6 7.9 4.8 139.9 89.6 9.4-20.6 38.6 67.6-70 3.6zM474.3 488.7h45.3v-145.4h-45.3zM396 448.7h45.3v-105.4H396zM317.7 397.6H363v-54.4h-45.3zM239.4 431.3h45.3v-88h-45.3zM161.1 440.5h45.3v-97.3h-45.3zM768.1 591.8c-68.6 26.3-145.7-7.9-172.4-76.2-26.7-68.3 7.4-145.3 76-171.6 32.2-12.3 67.9-11.8 99.6 1.5l3.2 1.3L719.4 468l48.7 123.8zM861.4 449.9c11.6 61.5-22.3 122.6-80.9 145.1l-47.3-120.6 128.2-24.5zM791.5 339.1c39.3 17.7 67.3 53.4 75.2 95.7l-130.2 25 55-120.7zM972 137.8V798H52v-660.2h361.3v-107.9l-21.4-5.3c-7.7-1.9-15.5-3.6-23.4-5.1-11.5-2.1-20.1-12-20.4-24-0.3-14.1 11.5-25.5 25.6-25.5H634c9.1-0.3 17.7 4.4 22.4 12.3 4.7 7.9 4.7 17.6 0 25.5-3.7 6.3-10 10.6-17 11.9-6.8 1.2-13.5 2.4-20.2 4.1L594 30V137.8h378z m-880 50V748h840v-560.2H92z"  horiz-adv-x="1024" />

    
    <glyph glyph-name="calendar" unicode="&#59000;" d="M257.5 661.5h23c18.4 0 32.2 13.8 32.2 30.7V819.5c0 17.8-14.4 32.2-32.2 32.2h-23c-17.8 0-32.2-14.4-32.2-32.2v-125.7c0-17.8 14.4-32.3 32.2-32.3zM738.9 661.5h23c18.4 0 32.2 13.8 32.2 30.7V819.5c0 17.8-14.4 32.2-32.2 32.2h-23c-17.8 0-32.2-14.4-32.2-32.2v-125.7c0-17.8 14.4-32.3 32.2-32.3zM952 746h-57c-0.8 0-1.5-0.1-2.2-0.1h-52.6v-53.7c0-39.9-32.2-73.6-76.7-73.6h-23c-42.2 0-76.7 34.5-76.7 76.7v50.6H357.1v-53.7c0-39.9-32.2-73.6-76.7-73.6h-26.1c-40.6 0-73.6 33-73.6 73.6v53.7H72c-11 0-20-9-20-20v-789.5c0-11 9-20 20-20h880c11 0 20 9 20 20V726c0 11-9 20-20 20z m-27-764.7c-1.6 0-3.2-0.2-4.8-0.6H92.9V534.3h838.6s0-533 1.5-552.9h-8zM233.3 463h-56c-17.6 0-32-14.4-32-32v-24c0-17.6 14.4-32 32-32h56c17.6 0 32 14.4 32 32v24c0 17.6-14.4 32-32 32zM412.3 463h-56c-17.6 0-32-14.4-32-32v-24c0-17.6 14.4-32 32-32h56c17.6 0 32 14.4 32 32v24c0 17.6-14.4 32-32 32zM590.3 463h-56c-17.6 0-32-14.4-32-32v-24c0-17.6 14.4-32 32-32h56c17.6 0 32 14.4 32 32v24c0 17.6-14.4 32-32 32zM233.3 308h-56c-17.6 0-32-14.4-32-32v-24c0-17.6 14.4-32 32-32h56c17.6 0 32 14.4 32 32v24c0 17.6-14.4 32-32 32zM412.3 308h-56c-17.6 0-32-14.4-32-32v-24c0-17.6 14.4-32 32-32h56c17.6 0 32 14.4 32 32v24c0 17.6-14.4 32-32 32zM590.3 308h-56c-17.6 0-32-14.4-32-32v-24c0-17.6 14.4-32 32-32h56c17.6 0 32 14.4 32 32v24c0 17.6-14.4 32-32 32zM781 308h-56c-17.6 0-32-14.4-32-32v-24c0-17.6 14.4-32 32-32h56c17.6 0 32 14.4 32 32v24c0 17.6-14.4 32-32 32zM233.3 153h-56c-17.6 0-32-14.4-32-32v-24c0-17.6 14.4-32 32-32h56c17.6 0 32 14.4 32 32v24c0 17.6-14.4 32-32 32zM412.3 153h-56c-17.6 0-32-14.4-32-32v-24c0-17.6 14.4-32 32-32h56c17.6 0 32 14.4 32 32v24c0 17.6-14.4 32-32 32zM590.3 153h-56c-17.6 0-32-14.4-32-32v-24c0-17.6 14.4-32 32-32h56c17.6 0 32 14.4 32 32v24c0 17.6-14.4 32-32 32zM781 153h-56c-17.6 0-32-14.4-32-32v-24c0-17.6 14.4-32 32-32h56c17.6 0 32 14.4 32 32v24c0 17.6-14.4 32-32 32z"  horiz-adv-x="1024" />

    
    <glyph glyph-name="Reports" unicode="&#59001;" d="M806.1 499.3c-3.9 72.4-64.9 133.6-137.5 136.9-0.2-45.7-0.1-91.5-0.1-137.2 45.9 0 91.8-0.2 137.6 0.3zM972 738.8s-264.9-0.1-376.7 0.6v94H536c-161.5-27.5-322.7-55.9-484-83.8 0-243.7-0.1-487.6 0-731.4 159.4-28 319-54.6 478.3-83.6h65V39.1c104.6 0 375.5 0.1 375.5 0.1l1.2 699.6zM358.6 349.3c-23.7-12.1-50.9-10.5-76.7-9.6-0.1-40.9-0.2-81.7-0.1-122.6-20.7 1.8-41.5 3.6-62.2 5.2-0.9 111.6-1.1 223.4 0.1 335 56.8-2.7 125.5 22.5 172.6-20.1 45-54.6 33.1-155.2-33.7-187.9z m581.6-278.9H595.3V154h250.8v41.8H595.3v52.3h250.8v41.8H595.4c-0.1 20.5-0.1 41-0.2 61.5 41.4-12.8 88.5-12.5 125.5 12.3 40 23.7 60.9 69 64.4 114.1-45.9 0.3-91.8 0.2-137.6 0.2-0.1 45.5 0.5 90.9-0.9 136.3-17.1-3.3-34.3-6.9-51.3-10.6V708h344.9v-637.6zM281.8 500.7c-0.3-35.1-0.5-70.1 1.7-105.1 20.8 2.5 47.8 0.4 59.7 21.9 9.9 21.1 10.6 48.1-1.4 68.6-13.9 19.3-39.4 15.6-60 14.6z m0 0"  horiz-adv-x="1024" />

    
    <glyph glyph-name="WoninOpportunities" unicode="&#59002;" d="M534.7 228.4V138c33.9 6 45.2 27.6 45.1 46.1 0 24.6-19.5 36-45.1 44.3zM452.7 315.3c0-22.7 20.4-32.5 48.3-40.7v83.9c-29.1-2.1-48.3-19.3-48.3-43.2zM813.7 275.5c-39.6 105.7-149.1 220.8-172.3 243.1l-0.8 0.8c-2.8 2.5-5.7 5-9 7.7-2.5 2.7-4.8 5-6.9 7.2 7.1-5.9 16.1-9.5 26.1-9.5 16 0 29.6 9.3 36.4 22.6 23.8-4.8 86-18.3 94.2-52.5 1.9-8.1 9.2-13.5 17.2-13.5 1.4 0 2.8 0.2 4.1 0.5 9.5 2.3 15.3 11.7 13 21.3-10.3 42.7-57.4 62.4-93.3 72.2 17 15.9 32.2 36.1 33.9 50.1 1.2 9.4-5.3 17.4-14.7 19-9.4 1.6-18.3-5.1-20.3-14.4-1.9-9.2-24-31.7-37-41-7.4 10.6-19.7 17.7-33.7 17.7-12.3 0-23.2-5.5-30.7-14.1 4.3 6.4 8.9 10.8 11.2 12.8 1.7 1.5 4.8 3.9 8.8 7.1 44.8 35.2 87.4 64.8 96.2 92 2.5 7.5 4.1 12.4 5.3 15.6 1.7 5 6.9 19.4-6.3 26.1-2.7 2.8-7.4 6.2-15 6.2-6 0-11.9-2-19.5-4.6-12.7-4.3-30.3-9.2-41.6-4.4-9.5 4-18.7 10.5-28.4 17.4-18 12.7-38.3 27.3-66.9 29.4-22.7 1.7-41.1-6.1-58.7-13.5-15.7-6.6-30.5-12.8-50.4-12.8h-0.1c-19.4 0.4-40.5 3.2-59.1 5.7-17.5 2.4-32.7 4.4-44.9 4.4-5.1 0-9.4-0.4-12.3-1-1.8 1.5-4.7 5-8.3 10.4-2.8 4.2-7.2 10.6-16.2 10.6-5 0-10-2.5-13-6.5-5.3-7.1-5-8.3 3.9-39.6l1.3-4.5c0.3-1 0.6-2.8 1-5.3 3.1-17.6 10.6-52.1 30.3-73.6 2.7-3.5 5.8-7.2 9.1-11.3 15.1-18.6 34.6-42.7 44.3-68.3-4.8-1-9.5-1.7-14.3-2.8-8.7-1.9-14.2-10.6-12.3-19.4 1.9-8.7 10.6-14.1 19.4-12.2 4.4 1 8.8 1.7 13.2 2.6-0.3-8.4-2.1-17-6.1-25.3-2.5-3.6-5-6.4-7.3-8.4-81.9-69.3-140.3-156-173.2-243.9-32.7-87.1-35-122.7-34.5-151.7 0.6-39.7 2.3-145.1 190.2-147.9 167.6-2.5 188.9-1.8 293.1-0.6 187.6 2 189.2 108.5 189.8 148.6 0.1 28.8-2.2 64.5-34.9 151.5z m-279-168.2v-37.6h-6.5v-0.3h-27.1v36.9c-41.5 2.5-71.7 19.8-92.3 43.2l20.6 26.3c15.6-18.4 39.3-35 71.7-38.6v99.9c-41.9 11.5-83.7 25.5-83.7 76.1 0 42.3 34.3 72.4 83.7 76v36.6h15.7v0.4h17.9v-38.4c30.9-4 55.5-17.2 74.3-36.7l-20.6-25c-14.9 16.3-33.3 26-53.8 30.2v-90.1c40.4-11.8 80.5-28.4 80.5-79.5 0.1-35.8-21.9-72.6-80.4-79.4z"  horiz-adv-x="1024" />

    
    <glyph glyph-name="QuotationTEU" unicode="&#59003;" d="M529.3 566.7c46.2 0 84.6 42.3 84.6 84.6 0 26.9-15.4 50-30.8 69.2 0-3.8 3.8-7.7 3.8-19.2 0-30.8-26.9-57.7-57.7-57.7-30.8 0-57.7 26.9-57.7 57.7v15.4c-19.2-19.2-26.9-42.3-26.9-65.4-3.8-46.2 38.6-84.6 84.7-84.6z m0 111.5c30.8 0 53.8 26.9 53.8 57.7 0 30.8-26.9 57.7-53.8 57.7s-53.8-26.9-53.8-57.7c-7.7-30.8 19.2-57.7 53.8-57.7z m-403.8-523L264 101.4c-7.7 23.1-53.8 365.4-53.8 365.4l-84.7-311.6z m557.6-180.8l7.7 130.8L387 74.4l296.1-100z m88.5 738.4l-150-23.1c7.7-19.2 15.4-34.6 15.4-53.8 0-65.4-50-115.4-107.7-115.4-65.4 0-107.7 50-107.7 115.4 0 7.7 0 19.2 3.8 23.1l-180.8-26.9c3.8-176.9 84.6-526.9 84.6-526.9l569.2 100c-42.2 38.4-126.8 507.6-126.8 507.6zM344.7 435.9L587 470.5l7.7-26.9L352.4 409c3.8 0-7.7 26.9-7.7 26.9z m50-203.8l-7.7 30.8L687 309l7.7-30.8-300-46.1z m-15.4 84.6l-15.4 30.8 388.4 50 15.4-30.8c-3.8 0-388.4-50-388.4-50z m0 0"  horiz-adv-x="1024" />

    
    <glyph glyph-name="Metting" unicode="&#59004;" d="M954.3 753.1H69.7c-8.8 0-17.7-7.2-17.7-25.1 0-17.9 8.8-28.7 17.7-28.7h25.6c-0.3-1.4-0.5-2.8-0.5-4.2v-559.4c0-11.4 8.9-18.2 17.7-18.2h799c8.8 0 15.5 9.1 17.7 18.2V695.1c0 1.5-0.2 2.9-0.4 4.2h25.5c8.8 0 17.7 7.2 17.7 25.1 0 17.9-8.8 28.7-17.7 28.7zM896 151.6H130.2V679.2H896v-527.6zM638.5 15.5h-4.2l-120.2 31.8-124.4-31.8c-8.4-2.1-16.9 2.1-19 10.6-2.1 8.5 2.1 17 10.5 19.1L509.9 77h8.4l124.4-31.8c8.4-2.1 12.7-10.6 10.5-19.1-2-6.4-8.3-10.6-14.7-10.6z m0 0M512 47.3c-8.4 0-16.9 6.4-16.9 17v57.2c0 8.5 6.3 17 16.9 17 10.5 0 16.9-6.4 16.9-17v-57.2c-2.1-10.7-8.5-17-16.9-17z m0 0M130.2 688.6v-545.3h777.2V688.6H130.2zM189 459.9l80.1 101.8c4.2 4.2 8.4 6.4 12.7 6.4 4.2 0 10.5-2.1 12.7-6.4l63.3-101.8 135 178.1c6.3 6.4 14.8 8.5 23.2 2.1 6.3-6.4 8.4-14.8 2.1-23.3l-149.7-195c-2.1-2.1-8.4-6.4-12.7-6.4-6.3 0-10.5 2.1-12.7 6.4l-63.3 101.8-65.4-84.8c-6.3-6.4-14.8-8.5-23.2-2.1-6.3 6.3-8.4 14.7-2.1 23.2z m-3.8-97.1c0 8.9 7.2 16.1 16 16.1h204.5c8.9 0 16-7.2 16-16.1 0-8.9-7.2-16.1-16-16.1H201.2c-8.9 0-16 7.2-16 16.1z m0-66c0 8.9 7.2 16.1 16 16.1h403.4c8.9 0 16-7.2 16-16.1 0-8.9-7.2-16.1-16-16.1H201.2c-8.9-0.1-16 7.1-16 16.1z m598.6-66.1c0-8.9-7.2-16.1-16-16.1H201.2c-8.9 0-16 7.2-16 16.1 0 8.9 7.2 16.1 16 16.1h566.5c8.9 0 16.1-7.2 16.1-16.1z m-63.1 155c-59 0-106.8 48.1-106.8 107.4s47.8 107.4 106.8 107.4 106.8-48.1 106.8-107.4-47.8-107.4-106.8-107.4z"  horiz-adv-x="1024" />

    
    <glyph glyph-name="ren" unicode="&#59005;" d="M617.4 214.2c-3.1 34.9-2 59.3-2 91.3 15.6 8.3 43.6 61.2 48.3 105.9 12.2 1 31.5 13.1 37.2 61.1 3 25.7-9.1 40.2-16.4 44.7 20 60.9 61.4 249.2-76.7 268.7C593.7 811.2 557.3 824 510 824c-189.2-3.5-212-144.9-170.5-306.8-7.4-4.5-19.5-19-16.4-44.7 5.6-47.9 25-60 37.2-61.1 4.7-44.7 33.8-97.6 49.4-105.9 0-31.9 1.1-56.2-2-91.2C370.2 112.1 117.6 140.8 106-56h812c-11.6 196.8-263.2 168.1-300.6 270.2z m0 0"  horiz-adv-x="1024" />

    
    <glyph glyph-name="Seeting" unicode="&#59006;" d="M955.3 197.8h-20.1c-9.2 0-19 7-21.7 15.6L902 240.8c-4.4 7.9-2.6 19.6 3.9 26l14.2 13.9c6.5 6.4 6.5 16.8 0 23.1L896.3 327c-6.5 6.4-17.2 6.4-23.7 0l-14.3-13.9c-6.5-6.4-18.4-8.1-26.6-3.8l-28 11.3c-8.8 2.6-16 12.2-16 21.2v19.6c0 9-7.5 16.4-16.7 16.4h-33.5c-9.1 0-16.7-7.4-16.7-16.4v-19.6c0-9-7.3-18.6-16-21.2l-27.9-11.3c-8.2-4.2-20.2-2.5-26.6 3.8L635.9 327c-6.5 6.4-17.2 6.4-23.7 0l-23.7-23.1c-6.5-6.4-6.5-16.8 0-23.1l14.2-13.9c6.5-6.4 8.3-18.1 3.9-26l-11.5-27.4c-2.8-8.6-12.5-15.6-21.7-15.6h-20.1c-9.2 0-16.7-7.4-16.8-16.4v-32.7c0-9 7.5-16.4 16.8-16.4h20.1c9.2 0 19-7 21.7-15.6l11.5-27.4c4.3-7.9 2.5-19.7-3.9-26l-14.2-13.9c-6.5-6.4-6.5-16.8 0-23.1l23.7-23.1c6.5-6.4 17.2-6.4 23.7 0l14.2 13.9c6.5 6.3 18.5 8 26.6 3.8l28-11.3c8.8-2.6 16-12.2 16-21.2V-31c0-9 7.6-16.4 16.7-16.4H771c9.2 0 16.7 7.4 16.7 16.4v19.5c0 9 7.2 18.5 16 21.2l28.1 11.3c8.1 4.3 20.1 2.6 26.6-3.8l14.3-13.9c6.5-6.4 17.2-6.4 23.7 0l23.7 23.1c6.5 6.4 6.5 16.8 0 23.1l-14.3 13.9c-6.5 6.3-8.3 18.1-3.9 26l11.6 27.4c2.7 8.6 12.4 15.6 21.7 15.6h20.1c9.2 0 16.7 7.4 16.7 16.4v32.7c0 8.9-7.5 16.3-16.7 16.3zM754.2 83.3c-46.3 0-83.8 36.5-83.8 81.8 0 45.2 37.5 81.8 83.8 81.8 46.2 0 83.8-36.6 83.8-81.8 0-45.2-37.5-81.8-83.8-81.8zM970.9 56.1c0.1 3 0.1 5.6 0 7.7v-7.7zM114.7-1.6h-10.6c5.1-0.4 9-0.1 10.6 0zM90.3 572.3h842.5v-105.9H971V714.6H797.2v-0.5H547.5c-3.3 0-6.3 0.2-9.1 0.7-16.2 2.4-23.4 10.6-23.4 10.6s-17.3 25.8-42.3 69.1c-5.7 9.8-11.1 17-16 22.2-1.5 0.1-3.1 0.2-4.6 0.2H52.3v-204.8H52V-49h331.9v40H90.3V572.3z"  horiz-adv-x="1024" />

    
    <glyph glyph-name="Configuration" unicode="&#59007;" d="M569.6 768.7h94.2c11 0 19.9-8.8 19.9-19.7v-662h-134V749c0 10.9 8.9 19.7 19.9 19.7zM793 485.2h94.2c11 0 19.9-8.8 19.9-19.7V87h-134V465.5c0 10.9 8.9 19.7 19.9 19.7zM569 13.5c17.2-5.9-17.2 5.9 0 0z m0 0M166.1 63.3l1.8 0.9c-0.3-0.1-0.7-0.3-0.9-0.5-0.4-0.1-0.6-0.2-0.9-0.4z m0 0M261.9 313.3V792h-44.6v-509.6c9.9 15.2 25.7 26.1 44.6 30.9zM436.5 20.2c7.9-12.8 12.4-28 12.4-44.2H972v44.2H436.5zM368.2 227.3c1.4 16.3 16.1 24.6 33 30 19.4 6.2 42.9 6.4 59.1-2.8V592.3c0 10.9-8.9 19.7-19.9 19.7h-94.2c-11 0-19.9-8.8-19.9-19.7v-285.8c16.6-8.8 46.5-40.2 39.2-78.8M423 20.2c-8.3 10.8-19.8 19.3-33.6 24-7.3 2.5-14.8 3.8-22.8 5.2-8.1 1.4-16.4 2.9-24.5 5.7-0.7 0.2-1.4 0.5-2.3 0.7-5.7 1.7-14.4 4.4-16.9 11.4-1.8 5.1-2.1 10.6-2.3 15.5 0 0.9-0.1 1.8-0.1 2.7-0.2 4.5-0.4 8.9-0.4 13.2 0 3.7 3 7.1 6.3 10.6 0.2 0.2 0.4 0.5 0.7 0.7 0.9 1 2.3 2.4 2.7 3 4.8 7.8 5.8 19 6.7 28.8 0.1 1.4 0.3 2.7 0.4 4.1 0.2 1.6 1 3.1 2.4 4 1.4 0.9 3.1 1.2 4.6 0.8 0.3-0.1 0.5-0.1 0.5-0.1 1.4 0.6 2.9 4.8 4.4 12.5 0.4 1.9 0.7 3.5 1.1 4.8 2.4 7.3 3.8 16 3.2 19.5-2-0.3-3.9 0.4-5.2 2-1.4 1.8-1.6 4.2-0.5 6.2 2.3 4.1 3.4 9.4 4.1 14.6 2.8 17.5 2.4 30.8-1.1 41.8-4.1 13-12.6 23.7-24 31.2-10.6 7-23.8 11.1-38.2 11.5-9.3 0.3-18.1-0.8-26.2-3.3-18.9-5.7-33.8-18.4-40.6-35.8-5.4-13.9-4.3-29.7-2.8-41.8 0.7-6.1 1.7-13.1 4.7-18.4 1.1-2 0.9-4.4-0.5-6.2-1.3-1.6-3.3-2.3-5.2-2-0.6-3.1 0.5-10.9 2.3-16.9 0.4-1.4 0.8-3.2 1.2-5.3 2.3-11.4 4.2-14.3 5.3-14.6 0 0 0.2 0 0.4 0.1 1.6 0.4 3.3 0.1 4.6-0.8 1.4-0.9 2.2-2.4 2.4-4 1-9.6 1.9-18.2 4.3-26.4 1.2-4.3 3.8-8.6 8.1-13.5 0.3-0.3 0.6-0.7 0.9-0.9 1.9-1.9 3.6-3.9 3.4-8.3v-3.2c-0.1-8.2-0.1-16.7-2.3-24.9-2.9-11.1-20.4-15.1-30.9-17.3-0.5-0.1-1-0.2-1.4-0.3l-0.8-0.2c-3.1-0.6-6.2-1.2-9.2-1.8-16.9-3.2-31.5-6-45-15.9-16.4-12-26.3-30.6-27.8-51.7h304.5c-1.1 14.8-6.3 28.2-14.6 39zM217.3 194.9v-1.8c0.3-0.1 0.7-0.1 1-0.2-0.4 0.6-0.7 1.3-1 2zM486.4 69.9c-2.4 0.7-5.6 1.4-9 2.1-9.9 2-21.2 4.2-27.1 11.4-0.9 1.1-1.6 2.4-2.1 3.7-1.8 5-1.1 11.3-0.6 16.2 0.1 1 0.2 1.9 0.3 2.7 0.1 1.5 0.8 2.9 2 3.8 1.1 1 2.6 1.4 4.1 1.3 2-0.2 4.1-0.1 6.3 0.1 2.4 0.2 4.8 0.5 7.2 0.8l0.8 0.1c5.1 0.7 8.9 1.6 12.4 2.9 1.2 0.5 2.3 0.9 3.4 1.4 0 0.1-0.1 0.1-0.1 0.2-10.1 16.8-9.3 36.1-8.5 54.7 0.3 6.1 0.5 11.8 0.4 17.3-0.5 19.5-5.7 33.6-15.5 42.1-1.4 1.2-2.9 2.3-4.6 3.3-13.1 8.1-34.3 9.2-50.3 2.7-26.9-10.7-26.9-37.5-26.8-65.9 0-17.4 0.1-35.5-6.5-50-0.8-1.7-1.6-3.1-2.3-4.2-0.1-0.1-0.1-0.2-0.2-0.3 0.1 0 0.1-0.1 0.2-0.1 3.1-1.6 6.8-2.9 11.4-3.9 6.2-1.5 12.6-2.3 19.1-2.6 1.7 0 3.3-0.8 4.3-2.2 1.3-1.7 1.8-3.6 1.6-11.3 0-0.1-0.2-7-0.7-8.9 0-0.1-0.1-0.2-0.1-0.3-2-7.7-12.3-10-19.1-11.5-1.1-0.2-2.1-0.5-2.7-0.6-1.2-0.3-2.4-0.6-3.7-0.8-0.8-0.2-1.8-0.3-2.8-0.6h1.5c1.9 0 3.4-0.1 4.7-0.3 11-2 21.7-7.4 33.6-17 6.4-5.2 14.8-12 18.9-20.7h81.3c-2.1 16-13.3 28.7-30.8 34.4zM82.9 65c2.4 0.7 5.6 1.4 9 2.1 9.9 2 21.2 4.2 27.1 11.4 0.9 1.1 1.6 2.4 2.1 3.7 1.8 5 1.1 11.3 0.6 16.2-0.1 1-0.2 1.9-0.3 2.7-0.1 1.5-0.8 2.9-2 3.8-1.1 1-2.6 1.4-4.1 1.3-2-0.2-4.1-0.1-6.3 0.1-2.4 0.2-4.8 0.5-7.2 0.8l-0.8 0.1c-5.1 0.7-8.9 1.6-12.4 2.9-1.2 0.5-2.3 0.9-3.4 1.4 0 0.1 0.1 0.1 0.1 0.2 10.1 16.8 9.3 36.1 8.5 54.7-0.3 6.1-0.5 11.8-0.4 17.3 0.5 19.5 5.7 33.6 15.5 42.1 1.4 1.2 2.9 2.3 4.6 3.3 13.1 8.1 34.3 9.2 50.3 2.7 26.9-10.7 26.9-37.5 26.8-65.9 0-17.4-0.1-35.5 6.5-50 0.8-1.7 1.6-3.1 2.3-4.2 0.1-0.1 0.1-0.2 0.2-0.3-0.1 0-0.1-0.1-0.2-0.1-3.1-1.6-6.8-2.9-11.4-3.9-6.2-1.5-12.6-2.3-19.1-2.6-1.7 0-3.3-0.8-4.3-2.2-1.3-1.7-1.8-3.6-1.6-11.3 0-0.1 0.2-7 0.7-8.9 0-0.1 0.1-0.2 0.1-0.3 2-7.7 12.3-10 19.1-11.5 1.1-0.2 2.1-0.5 2.7-0.6 1.2-0.3 2.4-0.6 3.7-0.8 0.8-0.2 1.8-0.3 2.8-0.6h-1.5c-1.9 0-3.4-0.1-4.7-0.3-11-2-21.7-7.4-33.6-17-6.4-5.2-14.8-12-18.9-20.7H52c2.2 16 13.4 28.7 30.9 34.4z"  horiz-adv-x="1024" />

    
    <glyph glyph-name="shezhixiao" unicode="&#59008;" d="M78.4 560.1c-14.5 0-26.4-11.6-26.4-25.8v-51.7c0-14.3 11.8-25.8 26.4-25.8h31.7c14.4 0 29.9-11 34.2-24.6l18.2-43.2c6.9-12.5 4-31-6.2-41l-22.7-22c-4.9-4.8-7.7-11.4-7.7-18.3s2.8-13.5 7.7-18.3l37.4-36.5c10.3-10.1 27.1-10.1 37.4 0l22.4 22c10.3 10 29.2 12.7 42.1 6l44.3-17.8c13.9-4.2 25.3-19.3 25.3-33.5v-30.9c0-14.2 12-25.8 26.4-25.8h52.8c14.5 0 26.4 11.7 26.4 25.8v30.9c0 14.2 11.3 29.2 25.2 33.5l30.1 12c-0.9 4.4-1.3 9-1.3 13.5 0 18 7.4 35.7 20.4 48.3l28.2 27.5c12.8 12.6 29.9 19.5 47.9 19.5 9.1 0 17.9-1.9 26.2-5.3 0.5 3.7 1.7 7.2 3.4 10.3l18.3 43.2c4.3 13.5 19.7 24.7 34.2 24.7h31.7c14.5 0 26.4 11.7 26.4 25.8v51.6c0 14.3-11.9 25.8-26.4 25.8h-31.7c-14.5 0-29.9 11.1-34.2 24.7L628.4 628c-6.9 12.5-4.1 31 6.2 41l22.4 22c4.9 4.8 7.7 11.4 7.7 18.3s-2.8 13.5-7.7 18.3L619.6 764c-10.2 10-27.1 10-37.2 0.1l-22.6-22c-10.3-10.1-29.1-12.8-42-6.1l-44.3 17.8c-13.9 4.2-25.2 19.3-25.2 33.5V818.2c0 14.2-11.9 25.8-26.5 25.8H369c-14.4 0-26.4-11.7-26.4-25.8v-30.9c0-14.3-11.4-29.3-25.3-33.6l-44.2-17.8c-12.8-6.6-31.7-3.9-42 6.1l-22.5 22c-10.3 10-27.1 10-37.4 0l-37.4-36.5c-4.9-4.8-7.7-11.4-7.7-18.3s2.8-13.5 7.7-18.3l22.5-22c10.2-10 13.1-28.5 6.2-41l-18.2-43.2c-4.3-13.5-19.7-24.7-34.2-24.7H78.4v0.1z m317-180.6c-73 0-132.1 57.7-132.1 129 0 71.2 59.2 129 132.1 129 73 0 132.1-57.8 132.1-129 0-71.3-59.2-129-132.1-129z m0 0M512.6 193.1c-10.1 0-18.4-8.1-18.5-17.9v-35.9c0-9.9 8.2-17.9 18.4-17.9h22.1c10.1 0 20.8-7.7 23.8-17.1l12.6-30.1c4.8-8.7 2.8-21.6-4.3-28.5l-15.6-15.2c-7.2-7-7.2-18.4 0-25.4l26-25.4c7.2-7 18.8-7 26 0l15.6 15.2c7.2 6.9 20.4 8.8 29.2 4.1l30.7-12.4c9.7-2.9 17.6-13.4 17.6-23.2V-58c0-9.9 8.3-17.9 18.4-17.9h36.8c10.1 0 18.4 8.1 18.4 17.9v21.4c0 9.9 7.9 20.3 17.6 23.2l30.8 12.4c8.9 4.8 22.1 2.9 29.1-4.1l15.7-15.2c7.2-7 18.8-7 26 0l26 25.4c7.1 7 7.1 18.4 0 25.4l-15.7 15.2c-7.2 6.9-9.1 19.8-4.3 28.5l12.7 30.1c3 9.4 13.6 17.1 23.8 17.1h22.1c10.1 0 18.4 8.1 18.4 17.9v35.9c0 9.9-8.2 17.9-18.4 17.9h-22.1c-10.1 0-20.9 7.7-23.8 17.1l-12.6 30.1c-4.8 8.7-2.9 21.5 4.3 28.5L915 284c7.2 7 7.2 18.4 0 25.4l-26 25.4c-7.2 7-18.8 7-26 0l-15.7-15.3c-7.1-7-20.2-8.9-29.1-4.2l-30.8 12.4c-9.7 2.9-17.6 13.4-17.6 23.2v21.5c0 9.9-8.2 17.9-18.4 17.9h-36.8c-10 0-18.4-8.1-18.4-17.9V351c0-9.9-8-20.4-17.6-23.2l-30.7-12.4c-9-4.7-22.1-2.8-29.2 4.2l-15.6 15.3c-7.2 7-18.8 7-26 0l-26-25.4c-7.2-7-7.2-18.4 0-25.4l15.6-15.2c7.1-7 9.1-19.8 4.3-28.5l-12.6-30.1c-3-9.4-13.7-17.1-23.8-17.1h-22m128.6-35.9c0 49.6 41.2 89.8 91.9 89.7 50.7 0 91.9-40.2 91.9-89.7s-41.2-89.7-91.9-89.7c-50.8-0.1-91.9 40-91.9 89.7"  horiz-adv-x="1024" />

    
    <glyph glyph-name="WoninOpportunities1" unicode="&#59009;" d="M657.5 517.3c-108.3 0-196.6 28-202.7 62.7v-91.3c5.4-34.7 94.3-62.7 202.7-62.7s196.6 28 202.6 62.7V580c-5.5-35.3-94.3-62.7-202.6-62.7z m0 0M657.5 636.7c-108.3 0-196.6 28-202.7 62.7v-91.3c5.4-34.7 94.3-62.7 202.7-62.7s196.6 28 202.6 62.7v91.3c-5.5-35.3-94.3-62.7-202.6-62.7z m0 0M657.5 660.9c111.9 0 202.6 29.7 202.6 66.3 0 36.6-90.8 66.4-202.6 66.4-111.9 0-202.7-29.7-202.7-66.4-0.1-36.6 90.6-66.3 202.7-66.3zM484.6 93.7c-33.5-12.2-82.2-19.5-136.3-19.5-98 0-178.3 24.9-183.8 56.6V31c4.9-31.6 85.2-56.6 183.8-56.6S526.5-0.7 532 31v99.8c-2.4-14.6-20.1-27.3-47.4-37.1z m-136.4 115c49.9 0 95.5 6.7 128.4 17 32.3 10.3 52.3 24.3 55.4 39.6V345c-1.2-7.9-7.9-15.8-18.3-23.1-9.7-6.7-22.5-12.2-38.3-17-6.7-1.8-14-4.3-21.3-5.5-29.8-6.7-66.3-11-105.9-11-98 0-178.3 25-183.8 56.6v-79.7c4.9-31.6 85.3-56.6 183.8-56.6z m0 0M657.5 268.4c-46.9 0-90.7 5.5-124.8 14v-78.5l-0.6 29.8c-1.2-8.5-8.5-17-20.1-24.3-9.8-6.1-23.2-11.5-38.4-16.4-6.2-2-12.5-3.6-18.9-4.9-29.8-6.7-66.3-10.9-105.9-10.9-98 0-178.3 25-183.8 56.6v-71.2c4.9-31.6 85.2-56.6 183.8-56.6 40.8 0 78.5 4.3 108.9 11.6 43.2 10.3 71.8 26.8 74.9 45V76c34.7-8.5 77.9-14 124.8-14 108.3 0 196.6 28 202.6 62.7v92.5c-5.5-34.7-94.3-62.7-202.6-62.7-46.9 0-90.7 5.5-124.8 14v34.7c34.6-8.5 77.8-14 124.8-14 108.3 0 196.6 28 202.6 62.7V331c-5.4-34.7-94.2-62.6-202.5-62.6z m0 0M657.5 391.3c-46.9 0-90.7 5.5-124.8 14-6.7 1.8-12.8 3.6-18.3 5.5-34.7 11-56.6 26.8-59.6 43.2v-35.8c-29.9 6.3-66.5 9.7-106.5 9.7-101.6 0-184.4-23.7-184.4-52.9s82.8-53 184.4-53c40.8 0 79.1 3.7 109.6 10.3h1.2c10.3 2.5 20.1 4.9 28 7.3 28.6 9.1 45.6 21.3 45.6 34.7v-56.6c34.6-8.6 77.8-14 124.7-14 108.3 0 196.6 28 202.6 62.7V454c-5.4-34.7-94.2-62.7-202.5-62.7z m0 0"  horiz-adv-x="1024" />

    
    <glyph glyph-name="geren1" unicode="&#59010;" d="M511.9 640.3c-115.4 0-208.9-93.5-208.9-208.9s93.5-208.9 208.9-208.9S720.8 316 720.8 431.4s-93.5 208.9-208.9 208.9zM935.8 563.1c-23.2 54.8-56.3 104-98.6 146.2S745.8 784.7 691 807.9C634.3 831.8 574.1 844 512 844S389.7 831.8 332.9 807.8c-54.8-23.2-104-56.3-146.2-98.6S111.3 617.8 88.1 563C64.2 506.3 52 446.1 52 384s12.2-122.3 36.2-179.1c22.3-52.7 53.9-100.3 93.9-141.4 1.6-1.6 3.1-3.2 4.7-4.8 42.2-42.2 91.4-75.4 146.2-98.6 56.7-24 117-36.2 179.1-36.2s122.3 12.2 179.1 36.2c54.8 23.2 104 56.3 146.2 98.6 1.6 1.6 3.2 3.2 4.7 4.8 40 41.2 71.6 88.7 93.9 141.4 24 56.7 36.2 117 36.2 179.1s-12.4 122.3-36.4 179.1z m-112-462.7c-33.7 59.4-83.9 108.3-144.4 140.3-44.7-39.2-103.2-63-167.3-63-64.1 0-122.7 23.8-167.3 63-60.5-32-110.7-80.9-144.4-140.3C132 175.4 90.3 274.9 90.3 384 90.3 616.5 279.5 805.7 512 805.7S933.7 616.5 933.7 384c0-109.1-41.7-208.7-109.9-283.6z"  horiz-adv-x="1024" />

    
    <glyph glyph-name="CRM" unicode="&#59011;" d="M95.1 163h156.6v-197.3H95.1V163z m238.8 202.2h160.5v-399.5H333.9V365.2z m238.8-76.9h159.2v-322.6H572.7V288.3zM811.5 484H972v-518.3H811.5V484zM52 358.7l371.9 341.9 213.4-209.7 201.5 234.5-73.1 76.9H972v-199.5L899.9 677 637.3 359.2 421.6 581 103.8 285.1 52 358.7z m0 0"  horiz-adv-x="1024" />

    
    <glyph glyph-name="zhedie" unicode="&#58966;" d="M952 701H243c-11 0-20-9-20-20v-80c0-11 9-20 20-20h709c11 0 20 9 20 20v80c0 11-9 20-20 20zM952 443.9H243c-11 0-20-9-20-20v-80c0-11 9-20 20-20h709c11 0 20 9 20 20v80c0 11.1-9 20-20 20zM952 187H243c-11 0-20-9-20-20v-80c0-11 9-20 20-20h709c11 0 20 9 20 20v80c0 11-9 20-20 20zM124.1 432.4l-66.6-43.2c-7.3-4.7-7.3-15.4 0-20.1l66.6-43.2c8-5.2 18.5 0.6 18.5 10.1v86.4c0 9.4-10.5 15.1-18.5 10z"  horiz-adv-x="1024" />

    
    <glyph glyph-name="guanbi" unicode="&#58967;" d="M596.9 384l240.4 240.4c23.4 23.4 23.4 61.4 0 84.9-23.4 23.4-61.4 23.4-84.9 0L512 468.9 271.6 709.3c-23.4 23.4-61.4 23.4-84.9 0-23.4-23.4-23.4-61.4 0-84.9L427.1 384 186.7 143.6c-23.4-23.4-23.4-61.4 0-84.9 23.4-23.4 61.4-23.4 84.9 0L512 299.1l240.4-240.4c23.4-23.4 61.4-23.4 84.9 0 23.4 23.4 23.4 61.4 0 84.9L596.9 384z"  horiz-adv-x="1024" />

    
    <glyph glyph-name="zhankai" unicode="&#58968;" d="M781 701H72c-11 0-20-9-20-20v-80c0-11 9-20 20-20h709c11 0 20 9 20 20v80c0 11-9 20-20 20zM781 443.9H72c-11 0-20-9-20-20v-80c0-11 9-20 20-20h709c11 0 20 9 20 20v80c0 11.1-9 20-20 20zM781 187H72c-11 0-20-9-20-20v-80c0-11 9-20 20-20h709c11 0 20 9 20 20v80c0 11-9 20-20 20zM966.5 389.2l-66.6 43.2c-8 5.2-18.5-0.6-18.5-10.1v-86.4c0-9.5 10.5-15.2 18.5-10.1l66.6 43.2c7.3 4.8 7.3 15.4 0 20.2z"  horiz-adv-x="1024" />

    
    <glyph glyph-name="tuichu" unicode="&#58969;" d="M786.9 211.1c0-30.9-25.1-56-56-56h-74.2V659.2c0.7 37-28.6 67.6-65.5 68.6l-243.5 67.9H731c30.9 0 56-25.1 56-56V589h48V739.8c0 57.3-46.6 103.9-103.9 103.9H183.2v-0.7H179c-4.4 1-9 1-13.5 0-9.3-1.3-18.1-5.3-25.1-11.6-3.5-2.6-6.6-5.7-9.2-9.2-6.5-6.2-11.1-14-13.5-22.7-3.4-8.2-5.7-16.9-6.7-25.7v-597.1c0.6-37.4 30.6-67.6 68-68.6l409.7-183.7c17.9-0.2 35.1 6.8 47.8 19.3 12.7 12.5 20 29.6 20.2 47.5v116h74.2c57.3 0 103.9 46.6 103.9 103.9V357.5h-48v-146.4zM913 476.3l-109 68.5v-45.9H685.8V453H804v-46z"  horiz-adv-x="1024" />

    
    <glyph glyph-name="tuichudenglu-" unicode="&#58970;" d="M736.1 272c-11.5-28.8-31.6-54.6-51.7-77.6-23-23-48.8-40.2-77.6-51.7-28.8-11.5-60.3-20.1-94.8-20.1s-66.1 5.7-94.8 20.1c-28 13.9-54 31.2-77.6 51.7-22.4 22-39.9 48.4-51.7 77.6-11.5 28.7-20.1 60.3-20.1 94.8 0 20.1 2.9 40.2 5.8 57.5 5.7 20.1 11.5 37.3 20.1 54.6 8.6 17.2 20.1 31.6 31.6 48.8 12.2 15.5 26.8 29.1 43.1 40.2 8.6 5.8 17.2 8.6 25.8 5.8 8.7-2.9 17.3-5.8 23-14.4 5.8-8.6 8.7-17.3 5.8-25.9-2.9-8.6-5.8-17.2-14.4-23-23-17.2-43.1-37.4-54.6-63.2-11.5-25.9-20.1-51.7-20.1-80.4 0-23 5.8-46 14.4-68.9 8.6-23 23-40.2 37.4-54.6 15.5-15.9 34.1-28.6 54.6-37.3 21.8-9.5 45.2-14.3 68.9-14.4 23 0 46 5.7 68.9 14.4 23 8.6 40.2 23 54.6 37.3 15.9 15.6 28.6 34.1 37.4 54.6 9.4 21.8 14.3 45.2 14.4 68.9 0 28.7-5.7 54.6-17.2 77.6-11.5 23-28.8 46-51.7 60.3-8.6 5.7-11.5 14.3-14.4 23-2.9 8.6 0 17.2 5.8 25.8 5.7 8.6 14.4 11.5 23 14.4 8.6 2.9 17.2 0 25.8-5.7 14.4-11.5 28.7-25.9 40.2-40.2 11.5-14.4 23-31.6 31.6-46 8.6-17.2 14.4-34.5 20.1-51.7 5.7-17.3 5.7-37.4 5.7-57.5 2.8-34.5-3-66.1-17.3-94.8zM477.5 605.2c0 8.6 2.9 17.2 11.5 25.9 6.7 7.2 16 11.3 25.9 11.5 8.6 0 17.2-2.9 23-11.5 7.2-6.7 11.3-16.1 11.5-25.9v-206.8c0-8.6-2.9-17.2-11.5-23-5.8-5.7-14.4-11.4-23-11.4s-17.3 2.9-25.9 11.5c-5.7 5.7-11.5 14.4-11.5 23V605.2zM512 843.6C259.2 843.6 52.4 636.8 52.4 384S259.2-75.6 512-75.6 971.6 131.2 971.6 384 764.8 843.6 512 843.6z m0 0"  horiz-adv-x="1024" />

    
    <glyph glyph-name="xiugaimima" unicode="&#58971;" d="M947.6 194.4c-2.2 6.6-8.8 15.3-15.3 17.5l-6.6 2.2c-13.2 4.4-24.1 13.2-32.9 26.3-6.6 13.1-8.8 26.3-6.6 39.4l2.2 4.4c2.2 6.6 0 17.5-6.6 21.9 0 0-4.4 4.4-19.7 13.1-15.3 8.8-21.9 11-21.9 11-6.6 2.2-17.5 0-21.9-4.4l-4.4-4.4c-11-8.8-24.1-15.3-37.3-15.3-13.2 0-28.5 6.6-37.3 15.3l-4.4 4.4c-4.4 6.6-15.3 8.8-21.9 4.4 0 0-6.6-2.2-21.9-11-15.3-8.8-19.7-13.1-19.7-13.1-6.6-4.4-8.8-15.3-6.6-21.9l2.2-4.4c2.2-13.1 2.2-28.5-6.6-39.4-6.6-13.2-19.7-21.9-32.9-26.3l-4.4-2.2c-6.6-2.2-15.3-8.8-15.3-17.5 0 0-2.2-6.6-2.2-24.1s2.2-24.1 2.2-24.1c2.2-6.6 8.8-15.3 15.3-17.5l4.4-2.2c13.2-4.4 24.1-13.1 32.9-26.3 6.6-13.1 8.8-26.3 6.6-39.4l-2.2-4.4c-2.2-6.6 0-17.5 6.6-21.9 0 0 4.4-4.4 19.7-13.1 15.3-8.8 21.9-11 21.9-11 6.6-2.2 17.5 0 21.9 4.4l4.4 4.4c11 8.8 24.1 15.3 37.3 15.3 13.1 0 28.5-6.6 37.3-15.3l4.4-4.4c4.4-6.6 15.3-8.8 21.9-4.4 0 0 6.6 2.2 21.9 11 15.3 8.8 19.7 13.1 19.7 13.1 6.6 4.4 8.8 15.3 6.6 21.9l-2.2 4.4c-2.2 13.2-2.2 28.5 6.6 39.4 6.6 13.2 19.7 21.9 32.9 26.3l4.4 2.2c6.6 2.2 15.3 8.8 15.3 17.5 0 0 2.2 6.6 2.2 24.1 2.2 17.6 0 24.1 0 24.1z m-168.7-89.8c-37.3 0-67.9 30.7-67.9 67.9 0 37.3 30.7 67.9 67.9 67.9 37.3 0 67.9-30.7 67.9-67.9 0-39.4-30.7-67.9-67.9-67.9z m0 0M778.9 14.7c-11 0-21.9-4.4-28.5-11l-2.2-4.4c-6.6-6.6-17.5-11-28.5-11-4.4 0-8.8 0-13.2 2.2-2.2 0-8.8 4.4-24.1 13.1-15.3 8.8-21.9 15.3-24.1 15.3-11 8.8-15.3 26.3-11 39.4l2.2 4.4c2.2 8.8 0 21.9-4.4 30.7s-15.3 17.5-24.1 19.7h-4.4c-13.1 2.2-26.3 15.3-28.5 30.7 0 2.2-2.2 8.8-2.2 28.5 0 17.5 2.2 26.3 2.2 28.5 2.2 13.1 15.3 26.3 28.5 30.7l6.6 2.2c8.8 2.2 17.5 8.8 24.1 19.7 4.4 8.8 6.6 19.7 4.4 30.7l-2.2 4.4c-4.4 13.2 0 30.7 11 39.4 0 0 6.6 6.6 24.1 15.3 15.3 8.8 24.1 13.1 24.1 13.1 4.4 2.2 8.8 2.2 13.2 2.2 11 0 21.9-4.4 28.5-11l4.4-4.4c6.6-6.6 17.5-11 28.5-11h2.2V400c0 30.7-26.3 57-57 57h-65.7V610.8c0 127.1-103 232.3-232.3 232.3-127.1 0-232.3-103-232.3-232.3v-153.4h-65.7c-30.7 0-57-26.3-57-57v-418.6c0-30.7 26.3-57 57-57h596.1c30.7 0 57 26.3 57 57v35.1c-4.5-2.2-4.5-2.2-6.7-2.2z m-320 162.2v-92c0-4.4-4.4-6.6-6.6-6.6h-48.2c-4.4 0-6.6 4.4-6.6 6.6v92c-24.1 11-39.4 35.1-39.4 63.6 0 39.4 32.9 72.3 72.3 72.3s72.3-32.9 72.3-72.3c-4.3-26.3-19.7-50.4-43.8-63.6zM283.6 455.2v149c0 78.9 63.5 142.4 142.4 142.4s142.4-63.5 142.4-142.4v-149H283.6z m0 0"  horiz-adv-x="1024" />

    
    <glyph glyph-name="delete" unicode="&#58972;" d="M511.2 844C257.5 844 51.6 638.1 51.6 384.4 51.6 130.7 258.3-76 512-76s460.4 206.7 460.4 460.4S764.9 844 511.2 844z m265.3-667.9l-56.6-56.6L512 327.4 304.1 119.5l-56.6 56.6L455.4 384 247.5 591.9l56.6 56.6L512 440.6l207.9 207.9 56.6-56.6L568.6 384l207.9-207.9z"  horiz-adv-x="1024" />

    
    <glyph glyph-name="hidden" unicode="&#58973;" d="M511.2 844C257.5 844 51.6 638.1 51.6 384.4 51.6 130.7 258.3-76 512-76s460.4 206.7 460.4 460.4S764.9 844 511.2 844zM682 224.8l86.2-101.3-42.3-35.1-94.2 111.7c-39.1-16.8-79.8-27.1-120.5-27.1-134.8 0-276.1 113.3-334.3 211.4C210.4 441.1 271 501.7 341.2 544L255 645.3l42.3 35.1 95-111.7c39.1 16.8 79.8 27.1 119.7 27.1 134.8 0 276.1-113.3 334.3-211.4C812 328.5 752.2 267.1 682 224.8z m0 0M624.5 457c0-25.5-19.9-45.5-43.9-45.5-23.9 0-43.9 19.9-43.9 45.5 0 25.5 19.9 45.5 43.9 45.5 4 0 5.6-1.6 8.8-1.6-21.5 16.8-49.5 25.5-78.2 25.5-24.7 0-47.9-7.2-67.8-19.2l175.5-207.5c16.8 23.9 27.1 53.5 27.1 85.4 0 31.1-8.8 58.2-25.5 82.2 2.4-4.7 4-7.9 4-10.3z m0 0M376.4 384.4c0-78.2 60.6-142 134.8-142 24.7 0 47.9 7.2 67 19.1L402.7 469c-16.8-23.2-26.3-52.7-26.3-84.6z m0 0"  horiz-adv-x="1024" />

    
    <glyph glyph-name="yonghuchaxun" unicode="&#58974;" d="M932.6 56.8L742.9 242.1c-2.9 2.9-6.1 5.4-9.4 7.6 14.4 20.7 26.6 42.9 36.5 66.3 19 44.9 28.6 92.6 28.6 141.8S789 554.7 770 599.6c-18.3 43.4-44.5 82.3-77.8 115.7-33.4 33.4-72.2 59.7-115.5 78C531.9 812.4 484.3 822 435.3 822s-96.6-9.6-141.4-28.6c-43.3-18.3-82.1-44.6-115.5-78C145 682 118.9 643 100.6 599.7 81.6 554.7 72 507 72 457.9s9.6-96.8 28.6-141.8c16.1-38.1 38.3-72.8 66.1-103.4 3.8-4.2 7.8-8.3 11.8-12.4 33.4-33.4 72.2-59.7 115.5-78 44.8-19 92.4-28.6 141.4-28.6s96.6 9.6 141.4 28.6c23.9 10.1 46.5 22.7 67.5 37.6 2.4-3.6 5.2-7 8.4-10.2l189.7-185.3c13.7-13.4 31.7-19.5 49.4-18.3 15.3 1 30.2 7.5 41.8 19.3 24.9 25.5 24.5 66.5-1 91.4zM487.3 403.9c40.5 19.4 68.4 60.9 68.4 108.9 0 66.6-53.9 120.7-120.4 120.7s-120.4-54-120.4-120.7c0-48 27.9-89.4 68.4-108.9-83.7-13.2-154.9-65.4-194.3-137.3-41 52.9-65.4 119.2-65.4 191.2 0 172.3 139.8 312.4 311.7 312.4C607.2 770.2 747 630 747 457.8c0-72-24.4-138.3-65.4-191.2-39.5 71.9-110.7 124.1-194.3 137.3z"  horiz-adv-x="1024" />

    
    <glyph glyph-name="qishidian" unicode="&#58975;" d="M52.4 340.7l40.5-2.4v91.4l-40.5-2.4zM133.5 335.9l81.2-4.9V436.9l-81.2-4.8zM971.6 384L742.1 644v-175.7l-486.9-29v-110.7l486.9-28.9V124z"  horiz-adv-x="1024" />

    
    <glyph glyph-name="tixingshixiang" unicode="&#58976;" d="M883.5 780.2H758.3v9.1c0 30.1-24.6 54.7-54.6 54.7-30.1 0-54.6-24.6-54.6-54.7v-9.1H375.4v9.1c0 30.1-24.6 54.7-54.6 54.7s-54.6-24.6-54.6-54.7v-9.1H140.5c-31 0-56.5-25.5-56.5-56.5v-742.8c0-31.4 25.5-56.9 56.9-56.9h742.2c31.4 0 56.9 25.5 56.9 56.9V723.8c-0.5 30.9-25.5 56.4-56.5 56.4zM749.7 344.8L505.2 100.3c-14.1-14.1-37.3-14.1-51.5 0L299.4 254.7c-14.1 14.1-14.1 37.3 0 51.5 14.1 14.1 37.3 14.1 51.5 0l128.9-128.9 219 219.1c14.1 14.1 37.3 14.1 51.5 0 13.5-14.2 13.5-37.4-0.6-51.6z m116.5 338c-0.5-10.5-0.5-25-0.9-42.8-0.5-15-0.5-30.1-0.5-41.9H157.3V701.4c0 3.2 2.7 5.9 6.4 5.9h102.4v-9.1c0-30.1 24.6-54.7 54.6-54.7 30.1 0 54.6 24.6 54.6 54.7v9.1H649v-9.1c0-30.1 24.6-54.7 54.6-54.7s54.6 24.6 54.6 54.7v9.1h102c3.6 0 6.4-2.7 6.4-5.9-0.4-5.4-0.4-12.3-0.4-18.6z"  horiz-adv-x="1024" />

    
    <glyph glyph-name="baocun" unicode="&#58977;" d="M543.7 785.8h112.2v-183.7H543.7zM247.3 313.2h538.5v-26.6H247.3v26.6z m0-124.6h538.5V162H247.3v26.6z m0-128.3h538.5v-26.6H247.3v26.6z m0 0M951.3 655.3L786.8 823.7c-7.7 7.8-17 13.9-27.3 17.6-15 5.4-30.8 3.7-46.4 3.7H116.9C81.2 845 52 815.8 52 780.1v-792.4c0-35.7 29.2-64.9 64.9-64.9H907c35.7 0 64.9 29.2 64.9 64.9V595.3c0 11.4 0.2 21.6-3.5 32.6-3.6 10.3-9.4 19.7-17.1 27.4zM336.2 820.4h372v-268.2h-372V820.4z m523.5-869.5H169.4V390.1h690.3v-439.2z m83.9 103h-53.8v45.8h53.8v-45.8z m0 0"  horiz-adv-x="1024" />

    
    <glyph glyph-name="tixingshixiang-" unicode="&#58978;" d="M456.7 410.7c-59.2-44.8-103.3-38.5-103.3-38.5s-2.4-25.2 29.9-43.9c39.3 3.1 70.9 28.5 89.6 51.3 26.3 32.2 96.5 120.8 151.8 118.1-78.2 22.3-105.3-39.5-168-87zM856 776h-97.9v9.3c0 30.1-24.6 54.7-54.6 54.7-30.1 0-54.6-24.6-54.6-54.7v-9.3H375.2v9.3c0 30.1-24.6 54.7-54.6 54.7S266 815.4 266 785.3v-9.3h-98c-44.2 0-80-35.8-80-80v-688c0-44.2 35.8-80 80-80h688c44.2 0 80 35.8 80 80V696c0 44.2-35.8 80-80 80zM428.6 117.7c-21 2-37.1 19.6-37.2 40.7 0 13.2 6.4 25.6 17.2 33.3 24.1-19.6 45.7-32.7 64.3-41.1-4.1-20.7-23.2-34.9-44.3-32.9z m281 384.2c-8.3-7.8-19.6-11.7-30.9-10.9 20.7-46.3 13.7-126.5-57.8-198-37.5-37.5-31.1-107.2-52.7-128.8-21.5-21.6-92.1-18.2-183.1 72.8s-94.3 161.6-72.8 183.1 96.9 13.7 131.7 48.6c73.2 73.2 151.4 81.8 196.5 61.1-0.6 11.3 3.5 22.3 11.3 30.5 7.8 8.2 18.6 12.8 29.8 12.8 22.7 0 41.1-18.4 41.1-41.1 0-11.5-4.8-22.4-13.1-30.1z"  horiz-adv-x="1024" />

    
    <glyph glyph-name="lianjie" unicode="&#58979;" d="M598.6 786.5zM875.8 786.5C838.8 823.6 789.5 844 737.2 844s-101.6-20.4-138.6-57.5L415 602.5 163.9 350.9c-47.1-47.2-73.1-110-73.1-176.8 0-66.8 26-129.6 73.1-176.8 30-30.1 67.4-52.1 108-63.7h0.1c22.6-6.4 45.5-9.6 68.4-9.6 65.4 0 129.3 25.7 176.7 73.3L751.3 232c7.7 7.7 11.9 18 11.9 28.9 0 10.9-4.3 21.2-12 28.9-15.9 15.9-41.8 15.9-57.8-0.1L459.3 55c-43.1-43.2-106.3-59.6-165-42.8-27.3 7.8-52.4 22.6-72.6 42.9-65.6 65.7-65.6 172.6 0 238.3L656.4 729v0.1c21.6 21.6 50.2 33.5 80.7 33.5s59.2-11.9 80.8-33.6c44.6-44.7 44.6-117.4 0-162.1L729.6 478l-0.2-0.2L400.2 148c-11.4-11.4-26.6-17.7-42.8-17.7-16.2 0-31.4 6.3-42.8 17.8-23.7 23.7-23.7 62.3 0 86l198.3 198.7c7.7 7.7 11.9 18 11.9 28.9 0 10.9-4.3 21.2-12 28.9-15.9 15.9-41.8 15.9-57.8-0.1L256.7 291.8c-55.4-55.5-55.4-145.9 0-201.4 26.9-26.9 62.6-41.7 100.6-41.7 38 0 73.8 14.8 100.6 41.7l318.4 319 0.3 0.3 99.2 99.4c37 37.1 57.4 86.4 57.4 138.8 0 52.2-20.4 101.5-57.4 138.6z"  horiz-adv-x="1024" />

    
    <glyph glyph-name="renshu" unicode="&#58980;" d="M592 218.4c7-1.4 14-2.7 20.9-3.9 16.8-3 32.6-5.8 47.9-11 28.9-9.9 53.1-27.6 70.5-50.4 1.5-2 3-4 4.4-6H972c-6 102.2-136.4 87.3-155.8 140.2-1.6 18.1-1 30.8-1 47.4 8.1 4.3 22.6 31.8 25 55 6.3 0.5 16.3 6.8 19.3 31.7 1.6 13.3-4.7 20.9-8.5 23.2 10.3 31.6 31.8 129.3-39.7 139.4-7.4 13.1-26.2 19.8-50.8 19.8-98.1-1.8-109.9-75.2-88.4-159.2-3.8-2.4-10.1-9.9-8.5-23.2 2.9-24.9 12.9-31.2 19.3-31.7 2.5-23.2 17.5-50.7 25.6-55 0-16.5 0.6-29.2-1-47.3-12.8-34.9-73.5-40.4-115.5-69zM712.1 115.2c-18.9 24.7-45.1 43.9-76.4 54.7-16.5 5.7-33.7 8.7-51.9 11.9-7.5 1.3-15.1 2.7-22.7 4.2-11.1 2.3-22.2 5-33.1 8.7-1.5 0.5-3.3 1-5.2 1.6-13 4-32.7 9.9-38.5 26-4.1 11.7-4.7 24.3-5.3 35.3-0.1 2.1-0.2 4.1-0.3 6.1-0.5 10.2-0.8 20.3-0.8 30.1 0 8.5 6.8 16.2 14.4 24.2 0.5 0.5 1 1.1 1.5 1.6 2.1 2.2 5.3 5.6 6.1 6.7 10.8 17.9 13.1 43.3 15.2 65.7 0.3 3.2 0.6 6.3 0.9 9.3 0.4 3.7 2.4 7.1 5.5 9.2 3.1 2.1 7 2.8 10.6 1.8 0.8-0.2 1.1-0.2 1.1-0.2 3.1 1.3 6.5 10.9 10.1 28.5 0.9 4.3 1.6 8 2.5 11 5.4 16.5 8.6 36.5 7.4 44.4-4.4-0.7-9 1-11.9 4.6-3.3 4-3.7 9.6-1.1 14.1 5.3 9.3 7.6 21.5 9.3 33.3 6.3 39.9 5.5 70.2-2.4 95.3-9.3 29.6-28.7 54.1-54.7 71.2-24.2 15.9-54.1 25.3-87 26.3-21.1 0.7-41.3-1.9-59.7-7.5-43.1-13-77-42-92.4-81.5-12.2-31.7-9.9-67.6-6.5-95.4 1.7-14 4-29.9 10.7-41.9 2.5-4.5 2-10-1.2-14-2.9-3.5-7.4-5.2-11.8-4.6-1.3-7.1 1-24.7 5.3-38.5 1-3.1 1.8-7.2 2.8-12 5.3-26.1 9.5-32.5 12-33.3 0 0 0.4 0 1 0.1 3.6 1 7.5 0.3 10.6-1.8 3.1-2.1 5.1-5.4 5.4-9.1 2.2-21.8 4.4-41.4 9.7-60.2 2.8-9.9 8.7-19.7 18.5-30.7 0.7-0.8 1.4-1.5 2.1-2.1 4.3-4.3 8.2-9 7.8-18.8 0-2.4 0-4.8-0.1-7.2-0.2-18.8-0.3-38.2-5.3-56.8-6.7-25.2-46.5-34.4-70.3-39.4-1.1-0.2-2.2-0.5-3.2-0.7l-1.9-0.4c-7.1-1.4-14.1-2.8-20.9-4.1-38.5-7.3-71.8-13.6-102.4-36.3C78 117.4 55.4 75.1 52 27h693.2c-2.2 30.2-12.1 58.1-28.3 81.7-1.6 2.2-3.2 4.4-4.8 6.5z"  horiz-adv-x="1024" />

    
    <glyph glyph-name="sousuo-" unicode="&#58981;" d="M859.6 595.6l-236 236c-15 15-35.4 23.4-56.6 23.4H243c-44.2 0-80-35.8-80-80v-760c0-44.2 35.8-80 80-80h287.7C467.6-6.9 428 76.4 428 169c0 175.6 142.4 318 318 318 49.1 0 95.5-11.1 137-31v83c0 21.2-8.4 41.6-23.4 56.6z m-54-40.6h-216c-10.8 0-19.6 8.8-19.6 19.6v216c0 17.4 21.1 26.1 33.4 13.8l216.1-216.1c12.3-12.2 3.6-33.3-13.9-33.3zM1010-13.3l-67.7 67.7c-2.7 2.7-5.7 5-8.8 6.9 20.7 34 31.8 73.2 31.8 114 0 58.7-22.8 113.8-64.3 155.3-41.5 41.5-96.6 64.3-155.3 64.3-58.7 0-113.8-22.8-155.3-64.3C548.8 289.2 526 234 526 175.3c0-42.3 12.1-83.5 34.9-118.9 40.7-63.1 109.7-100.8 184.7-100.8 44.6 0 87.2 13.2 123.3 37.8 1.6-2.4 3.5-4.7 5.6-6.8l67.7-67.7c18.6-18.6 49.1-18.6 67.7 0 18.8 18.7 18.8 49.2 0.1 67.8z m-264.3 32.9c-53.2 0-102.2 26.7-131 71.5-16.2 25.1-24.7 54.2-24.7 84.3 0 85.9 69.9 155.8 155.8 155.8s155.8-69.9 155.8-155.8-70.1-155.8-155.9-155.8zM647.4 154.8c-8.8 0-16 7.2-16 16 0 68.3 55.5 123.8 123.8 123.8 8.8 0 16-7.2 16-16s-7.2-16-16-16c-50.6 0-91.9-41.2-91.9-91.9 0.1-8.8-7.1-15.9-15.9-15.9z"  horiz-adv-x="1024" />

    
    <glyph glyph-name="zhongzhi" unicode="&#58982;" d="M837.3 709.3C750.4 796.2 634.9 844 512 844S273.6 796.2 186.7 709.3 52 506.9 52 384c0-101.1 32.4-197.3 92.4-276.6l-43.1-43.1c-23.9-23.9-10.7-64.7 22.6-70.1l171.3-27.9c27.9-4.6 52.1 19.6 47.5 47.5l-28 171.2c-5.4 33.3-46.3 46.5-70.1 22.6l-11.7-11.7C195.6 251 175.5 316 175.5 384c0 185.6 151 336.5 336.5 336.5s336.5-151 336.5-336.5S697.6 47.5 512 47.5c-34.1 0-61.7-27.6-61.7-61.7s27.6-61.7 61.7-61.7c122.9 0 238.4 47.8 325.3 134.7S972 261.1 972 384s-47.8 238.4-134.7 325.3z"  horiz-adv-x="1024" />

    
    <glyph glyph-name="guanbiyemian" unicode="&#58983;" d="M849.8 844H174.2C106.8 844 52 789.2 52 721.8v-675.6C52-21.2 106.8-76 174.2-76h675.6c67.4 0 122.2 54.8 122.2 122.2V721.8C972 789.2 917.2 844 849.8 844z m32-797.8c0-17.6-14.4-32-32-32H174.2c-17.6 0-32 14.4-32 32V721.8c0 17.6 14.4 32 32 32h675.6c17.6 0 32-14.4 32-32v-675.6zM698.4 570.4c-18.2 18.2-47.6 18.2-65.8 0L512 449.8 391.4 570.4c-18.2 18.2-47.6 18.2-65.8 0-18.2-18.2-18.2-47.6 0-65.8L446.2 384 325.6 263.4c-18.2-18.2-18.2-47.6 0-65.8 18.2-18.2 47.6-18.2 65.8 0L512 318.2l120.6-120.6c18.2-18.2 47.6-18.2 65.8 0 18.2 18.2 18.2 47.6 0 65.8L577.8 384l120.6 120.6c18.1 18.2 18.1 47.6 0 65.8z"  horiz-adv-x="1024" />

    
    <glyph glyph-name="zhongzhi-" unicode="&#58984;" d="M848.6 584.6l-236 236c-15 15-35.4 23.4-56.6 23.4H232c-44.2 0-80-35.8-80-80v-760c0-44.2 35.8-80 80-80h287.7C456.6-17.9 417 65.4 417 158c0 175.6 142.4 318 318 318 49.1 0 95.5-11.1 137-31v83c0 21.2-8.4 41.6-23.4 56.6z m-54-40.6h-216c-10.8 0-19.6 8.8-19.6 19.6v216c0 17.4 21.1 26.1 33.4 13.8l216.1-216.1c12.3-12.2 3.6-33.3-13.9-33.3zM901.2 326.2C856.8 370.6 797.8 395 735 395s-121.8-24.4-166.2-68.8C524.4 281.8 500 222.8 500 160c0-51.7 16.6-100.8 47.2-141.3l-22-22c-12.2-12.2-5.5-33.1 11.6-35.8l87.5-14.3c14.3-2.3 26.6 10 24.3 24.3l-14.3 87.5c-2.8 17-23.6 23.7-35.8 11.6l-6-6c-19.1 28.2-29.3 61.3-29.3 96.1 0 94.8 77.1 171.9 171.9 171.9s171.8-77.2 171.8-172S829.8-11.9 735-11.9c-17.4 0-31.5-14.1-31.5-31.5S717.6-75 735-75c62.8 0 121.8 24.4 166.2 68.8C945.6 38.2 970 97.2 970 160s-24.4 121.8-68.8 166.2z"  horiz-adv-x="1024" />

    
    <glyph glyph-name="sousuochaxun" unicode="&#58985;" d="M953.3 77.4L826.1 204.5c-5.1 5.1-10.7 9.4-16.6 13 38.9 63.9 59.7 137.4 59.7 214.1 0 110.2-42.9 213.7-120.8 291.6C670.6 801.1 567.1 844 456.9 844S243.2 801.1 165.3 723.2C87.4 645.3 44.5 541.8 44.5 431.6c0-79.5 22.7-156.7 65.6-223.2 76.4-118.5 206-189.2 346.8-189.2 83.8 0 163.7 24.8 231.5 71 3.1-4.5 6.6-8.8 10.6-12.8l127.1-127.1c35-35 92.2-35 127.1 0 35 34.9 35 92.1 0.1 127.1z m-496.4 61.8c-99.8 0-191.8 50.2-246 134.2-30.4 47.1-46.4 101.8-46.4 158.2 0 161.2 131.2 292.4 292.4 292.4s292.4-131.2 292.4-292.4-131.2-292.4-292.4-292.4zM272.4 393c-16.6 0-30 13.4-30 30 0 128.2 104.3 232.4 232.4 232.4 16.6 0 30-13.4 30-30s-13.4-30-30-30c-95.1 0-172.5-77.4-172.5-172.5 0.1-16.5-13.3-29.9-29.9-29.9z"  horiz-adv-x="1024" />

    
    <glyph glyph-name="shangfan" unicode="&#58986;" d="M473.5 658.3L108.8 166.9c-23.5-31.7-0.9-76.6 38.5-76.6h729.2c39.4 0 62 44.9 38.5 76.6L550.5 658.3c-19.1 25.9-57.9 25.9-77 0z"  horiz-adv-x="1024" />

    
    <glyph glyph-name="zengjiafeiyong" unicode="&#58987;" d="M782.1 262c-82.6 0-149.9-67.3-149.9-150s67.2-150 149.9-150S932 29.3 932 112s-67.2 150-149.9 150zM877 93.6h-76.5V17h-36.7v76.6h-76.5v36.8h76.5V207h36.7v-76.6H877v-36.8zM465.1 289v-68.8c10.8 1.6 19.6 5.7 26.3 12.3 6.8 6.5 10.1 14.2 10.1 23 0 7.9-2.8 14.7-8.5 20.4-5.7 5.6-15 10-27.9 13.1zM581.5 23.1c-11.4 26.9-17.1 55.5-17.1 84.9s5.8 58 17.1 84.9c11 26 26.7 49.3 46.7 69.3 20 20 43.3 35.7 69.2 46.7 25.4 10.8 52.3 16.5 80 17.1-55 97.5-141.7 188.5-163 209l-0.9 0.9c-3.1 2.8-6.4 5.7-10.1 8.6-2.8 3-5.3 5.6-7.7 8 7.9-6.6 18-10.7 29.2-10.7 17.9 0 33.2 10.4 40.8 25.3 26.6-5.4 96.5-20.6 105.6-58.9 2.2-9.1 10.3-15.1 19.2-15.1 1.5 0 3.1 0.2 4.6 0.5 10.6 2.6 17.2 13.2 14.6 23.9-11.5 47.9-64.4 70-104.6 81 19 17.8 36.1 40.4 38.1 56.2 1.3 10.5-6 19.6-16.5 21.3-10.5 1.7-20.6-5.8-22.7-16.2-2.2-10.3-26.9-35.6-41.4-46-8.3 11.9-22.1 19.9-37.7 19.9-13.8 0-26-6.2-34.4-15.9 0.5 0.8 1 1.5 1.5 2.2 4.4 6 8.7 10.2 11 12.2 1.9 1.6 5.3 4.3 9.9 7.9 50.2 39.5 98 72.7 107.9 103.2 2.8 8.4 4.6 13.9 6 17.5 2 5.6 7.7 21.8-7.1 29.3-3 3.2-8.3 7-16.9 7-6.7 0-13.4-2.3-21.9-5.1-14.2-4.8-33.9-10.3-46.7-4.9-10.7 4.5-21 11.8-31.8 19.6-20.2 14.3-43 30.7-75 32.9-25.4 1.9-46.1-6.8-65.8-15.1-17.6-7.4-34.1-14.4-56.5-14.4h-0.1c-21.7 0.4-45.4 3.6-66.2 6.4-19.6 2.7-36.6 4.9-50.3 4.9-5.8 0-10.6-0.4-13.8-1.1-2.1 1.6-5.2 5.6-9.4 11.6-3.2 4.7-8.1 11.9-18.2 11.9-5.7 0-11.2-2.8-14.6-7.3-6-7.9-5.7-9.3 4.3-44.5l1.4-5c0.3-1.1 0.6-3.2 1.1-6 3.5-19.8 11.8-58.5 33.9-82.5 3.1-3.9 6.5-8.1 10.2-12.7 17-20.9 38.7-47.8 49.7-76.6s-10.7-2-16-3.2c-9.8-2.2-15.9-11.9-13.8-21.7 2.2-9.8 11.9-15.8 21.7-13.7 4.9 1.1 9.9 2 14.8 2.9-0.3-9.5-2.4-19-6.8-28.4-2.8-4-5.6-7.2-8.2-9.5-91.8-77.8-157.2-175-194.2-273.7C94 164.2 91.4 124.2 91.9 91.7c0.7-44.6 2.6-162.8 213.2-165.9 187.9-2.8 211.7-2.1 328.6-0.7 9.8 0.1 19.1 0.5 28 1.1-12.1 8-23.3 17.2-33.7 27.6-19.9 20.1-35.6 43.4-46.5 69.3zM530.8 208c-15.8-14.6-37.7-23.5-65.7-26.8v-33h-31.3v32.1c-24.9 2.5-45.1 10.1-60.6 22.8-15.5 12.7-25.5 30.6-29.8 53.8l56.3 4.9c2.3-9.4 6.6-17.5 12.9-24.3 6.3-6.8 13.4-11.8 21.1-14.8v73.9c-28.2 6.6-48.9 16.6-62 29.9-13.1 13.3-19.7 29.5-19.7 48.6 0 19.3 7.4 35.5 22.3 48.6 14.9 13.1 34.7 20.7 59.5 22.7v17.5h31.3v-17.5c22.9-2.2 41.1-8.6 54.6-19.1 13.5-10.5 22.2-24.6 25.9-42.3l-54.6-5.8c-3.3 13.9-11.9 23.3-25.9 28.2v-69c34.5-7.6 58-17.6 70.6-29.7 12.5-12.2 18.8-27.8 18.8-46.8-0.1-21.4-8-39.3-23.7-53.9zM413.5 395.9c-5-5.6-7.6-11.9-7.6-18.7 0-6.2 2.3-12 6.9-17.4 4.6-5.4 11.6-9.7 20.9-13v61c-8.4-2.3-15.2-6.3-20.2-11.9z"  horiz-adv-x="1024" />

    
    <glyph glyph-name="wenbenmoban" unicode="&#58988;" d="M812 844H212c-33.1 0-60-26.9-60-60v-800c0-33.1 26.9-60 60-60h600c33.1 0 60 26.9 60 60V784c0 33.1-26.9 60-60 60zM502.6 703.3h264.8v-83.6H502.6v83.6z m-264.2 0h174.2v-83.6H238.4v83.6z m0-152.7h529V467h-529v83.6z m0-141.6h314.9v-52H238.4v52z m0-103.1h220.2v-52H238.4v52z m250.9-258.2H238.4v52h250.9v-52z m33.3 103.1H238.4v52h284.2v-52z m203.2-79l38.1-35.8H641.6l-5.5 5.1h114.7l-32.1 29.1V268.6l12.9 0.2c15.5 0 26.4-1 32.9-3s11.4-5.9 15-11.7c-12.3 6.3-26.7 9.5-43.1 9.5-3.7 0-7.5-0.2-11.5-0.6l0.9-191.2z m67.3 165.4l-2.4 1.3-0.7 2.5c-4.6 14.5-11.2 24.5-19.7 30.1-8.5 5.6-21.6 8.4-39.1 8.4-7.2 0-14.4-0.3-21.5-0.8h-2.9v-206.4l28.2-20.8H625.5l24.5 22.3V263.3l-8 0.2c-16.4 0-28.1-2.6-35.1-7.7-6.9-5.1-11.1-14.2-12.3-27.1h-6.2c1.8 14.8 6.6 25.2 14.5 31 7.9 5.8 20.9 8.8 39.1 8.8l8-0.2v9.3c-8.1 0.8-6.9 1.1-14.2 1.1-20.6 0-35.4-3.3-44.5-10-9.1-6.7-14.1-17.9-15.1-33.8h-2.9c-6.9 17.6-17.5 55.2-31.8 76.9l-1.4 1.9h288.2c-1.4-2.2-29.9-63.4-34.7-75.6l-0.5-0.9z m15.5-8.9l-1-1.9-5.3 3.6 0.7 1.7c11.8 26.3 23.2 44.5 34.2 54.8l1.2 1.1 4.8-3.8c-10.9-11.1-22.4-29.6-34.6-55.5z"  horiz-adv-x="1024" />

    
    <glyph glyph-name="feiyongmoban" unicode="&#58989;" d="M656.9 270.9c-5-5.6-7.6-11.9-7.6-18.7 0-6.2 2.3-12 6.9-17.4 4.6-5.4 11.6-9.7 21-13v61c-8.5-2.3-15.3-6.3-20.3-11.9zM812 844H212c-33.1 0-60-26.9-60-60v-800c0-33.1 26.9-60 60-60h600c33.1 0 60 26.9 60 60V784c0 33.1-26.9 60-60 60zM511.6 689.4h264.8v-83.6H511.6v83.6z m-264.2 0h174.2v-83.6H247.4v83.6z m0-152.6h528.9v-83.6H247.4v83.6z m0-244.8h220.2v-52H247.4v52z m250.9-258.2H247.4v52h250.9v-52z m33.3 103.1H247.4v52h284.2v-52z m30.7 206.3H247.4v52h314.9v-52zM774.4 83c-15.8-14.6-37.7-23.5-65.8-26.8v-33h-31.3v32.1c-24.9 2.5-45.2 10.1-60.8 22.8-15.6 12.7-25.5 30.6-29.8 53.8l56.4 4.9c2.3-9.4 6.6-17.5 13-24.3 6.3-6.8 13.4-11.8 21.2-14.8v73.9c-28.3 6.6-49 16.6-62.2 29.9-13.2 13.3-19.8 29.6-19.8 48.6 0 19.3 7.5 35.5 22.4 48.6 14.9 13.1 34.8 20.7 59.6 22.7v17.5h31.3v-17.5c22.9-2.2 41.1-8.6 54.7-19.1 13.5-10.5 22.2-24.6 25.9-42.3l-54.7-5.8c-3.3 13.9-12 23.3-25.9 28.2v-69c34.6-7.6 58.2-17.6 70.7-29.7 12.5-12.2 18.8-27.8 18.8-46.8 0-21.4-7.9-39.3-23.7-53.9zM708.6 164v-68.8c10.8 1.6 19.6 5.7 26.4 12.3 6.8 6.5 10.2 14.2 10.2 23 0 7.9-2.8 14.7-8.5 20.4-5.8 5.6-15.2 10-28.1 13.1z"  horiz-adv-x="1024" />

    
    <glyph glyph-name="yizhankai" unicode="&#58990;" d="M512 844C257.95 844 52 638.05 52 384s205.95-460 460-460 460 205.95 460 460S766.05 844 512 844z m270-530H242V454h540z"  horiz-adv-x="1024" />

    
    <glyph glyph-name="weizhankai" unicode="&#58991;" d="M512 844C257.95 844 52 638.05 52 384s205.95-460 460-460 460 205.95 460 460S766.05 844 512 844z m270-530H582v-200H442V314H242V454h200V654h140v-200h200z"  horiz-adv-x="1024" />

    
    <glyph glyph-name="genhuantianjiatupian" unicode="&#58992;" d="M341 311.41999999999996a114.47 114.47 0 1 1 114.46 114.45A114.46 114.46 0 0 1 341 311.41999999999996z m0 0M944.08 600.3399999999999h-83.76v83.74a27.92 27.92 0 0 1-55.84 0v-83.74h-83.76a27.91 27.91 0 1 1 0-55.83h83.76v-83.75a27.92 27.92 0 0 1 55.84 0v83.75h83.77a27.91 27.91 0 1 1 0 55.83z m0 0M748.63 446.81v41.87h-41.88c-39.09 0-69.8 30.71-69.8 69.79a82 82 0 0 0 2.8 19.54H401a22.54 22.54 0 0 1 4.19 12.56v25.12a25 25 0 0 1-25.13 25.12H177.64a25 25 0 0 1-25.12-25.12v-25.12a22.49 22.49 0 0 1 4.19-12.57H77.13A25 25 0 0 1 52 552.89v-471.77A25 25 0 0 1 77.13 56h759.46a25 25 0 0 1 25.13 25.12V368.64c-8.38-2.79-18.15-5.58-27.92-5.58-47.46 0-85.16 37.69-85.16 83.75zM455.46 107.63999999999999C343.77 107.63999999999999 253 198.37 253 311.41999999999996S343.77 515.2 455.46 515.2s202.43-90.73 202.43-203.78-90.74-203.78-202.43-203.78z m0 0"  horiz-adv-x="1024" />

    
    <glyph glyph-name="gouxuan" unicode="&#58993;" d="M842.93 802.53a87.7 87.7 0 0 0 87.6-87.6v-661.86a87.7 87.7 0 0 0-87.6-87.6H181.07a87.7 87.7 0 0 0-87.6 87.6V714.9300000000001a87.7 87.7 0 0 0 87.6 87.6h661.86m0 41.47H181.07A129.22 129.22 0 0 1 52 714.9300000000001v-661.86A129.22 129.22 0 0 1 181.07-76h661.86A129.22 129.22 0 0 1 972 53.07000000000005V714.9300000000001A129.22 129.22 0 0 1 842.93 844zM419.93 194.52999999999997a71.44 71.44 0 0 0-42.74 14.08L198.26 340.78A25 25 0 0 0 228 381l178.9-132.18a21.94 21.94 0 0 1 27.55 1.18l359.91 317.22a25 25 0 0 0 33.06-37.51L467.51 212.5a71.91 71.91 0 0 0-47.58-17.97z"  horiz-adv-x="1024" />

    
    <glyph glyph-name="kuang" unicode="&#58994;" d="M842.93 802.53a87.7 87.7 0 0 0 87.6-87.6v-661.86a87.7 87.7 0 0 0-87.6-87.6H181.07a87.7 87.7 0 0 0-87.6 87.6V714.9300000000001a87.7 87.7 0 0 0 87.6 87.6h661.86m0 41.47H181.07A129.22 129.22 0 0 1 52 714.9300000000001v-661.86A129.22 129.22 0 0 1 181.07-76h661.86A129.22 129.22 0 0 1 972 53.07000000000005V714.9300000000001A129.22 129.22 0 0 1 842.93 844z"  horiz-adv-x="1024" />

    
    <glyph glyph-name="sailing--" unicode="&#58995;" d="M820.86 341.12c57.5 79.17 101.66 146.36 101.66 222.38 0 123.5-97.39 223.5-217.65 223.5S487.23 686.91 487.23 563.5c0-68.25 37.86-133.42 87.33-203.82L515 339.37l-115.37 38.86c14.26 25.41 23.39 50 23.39 76.57 0 70.07-53.23 126.83-118.82 126.83S185.4 524.87 185.4 454.8c0-29.26 12-57.61 29.44-86.93l-0.52-0.07L52-19l245.24 98.56L520.41-19l209.5 98.56L972-19 820.85 341.13zM704.94 672.07c58.36 0 105.67-48.57 105.67-108.56s-47.39-108.64-105.67-108.64-105.67 48.65-105.67 108.63 47.25 108.56 105.67 108.56zM304.28 516.4c31.8 0 57.7-27.58 57.7-61.6s-25.9-61.59-57.7-61.59-57.7 27.65-57.7 61.59 25.83 61.6 57.7 61.6zM725.7 138.14l-205.42-94.78-219 94.77L138 58.9l93.6 257.17 15.25 3.08c18.6-26.46 38.9-54.39 57.43-85.39 23.06 39.27 47.31 71.89 68 101.84l142.86-48.86 89.43 31c32.73-44.72 67.95-91.9 100.28-143.91 30.29 49.56 61.64 92.81 91 132.92l94.36-251z m0 0"  horiz-adv-x="1024" />

    
    <glyph glyph-name="sailing" unicode="&#58998;" d="M828.42 84.88V124.8q13.61-2.71 18.35-20.5h18.35q-5.32 29.7-36.7 33.45v13.49h-13v-13.49q-37.9-2.71-39.07-31.3-1.78-27 39.07-34v-43.15q-23.69 1.62-40.85 24.82V39q14.21-18.34 40.85-21v-14.6h13V18q40.25 2.71 40.26 34 0.59 23.7-40.26 32.88z m-13 2.16q-19.54 4.86-18.95 18.88 0.58 16.72 18.95 19.42z m13-57.19v39.92Q848 64.91 848 50.88q0-18.35-19.58-21.04zM872.43 213l58.83 132.25 0.44 1.32a73.59 73.59 0 0 1-4.54 57.49 77.18 77.18 0 0 1-45.54 38l-55.11 18.3V600.13C826.5 642 790.85 676 747 676h-78.48v58.19c0 60.31-51.4 109.38-114.58 109.38H448.62C385.44 843.57 334 794.5 334 734.19V676h-78.47c-43.59 0-79.1-33.67-79.47-75.2l-22.43-146.55a337.06 337.06 0 0 1-30.75-17.76c-29-18.72-34.28-27.56-36.53-31.33l-1.07-1.8-0.8-1.92c-8.41-20.3-9-40.33-1.66-58l127.13-324.15c-1.51 0.06-3 0.15-4.63 0.25-25.58 1.7-66.25 9.58-114.73 37.44-12 6.92-27.68 3.22-34.94-8.27s-3.37-26.4 8.67-33.32a370 370 0 0 1 51.31-24.59c47.45-18.28 86.85-21.19 113.31-19.91l0.05-0.13h36.27c39.9 0 81 6.34 122.17 18.85 38.52 11.7 74.25 17.58 109.24 18H498l3.18-0.21c26.92-1.81 52.82-6.4 81.62-14.48l12.44-3.39a548.38 548.38 0 0 1 87.94-16.89l1.81-0.21h15.46c28.63-29.48 69.54-48 114.9-48 86.38 0 156.65 67 156.65 149.42C972 137 930.66 191.2 872.43 213zM464.32 64.25c-30.91-2.77-62.39-9.09-95.43-19.12-33.05-10-65.84-15.43-97.56-16L140 363.82c-0.15 0.39-0.31 0.77-0.44 1.1-1.38 3.31-0.71 7.64 0.26 11 8.5 7.19 33.51 23.26 47.51 29.26l277 75.44z m52.9 491.38h-0.08l-1.1 0.28q-2 0.5-3.8 0.81l-1 0.17c-1.15 0.18-2.31 0.32-3.47 0.42l-1.19 0.1a47.48 47.48 0 0 1-4 0.11h-1.56c-1.29 0-2.58-0.14-3.79-0.26l-1.49-0.18c-1.16-0.15-2.31-0.35-3.47-0.58l-1.15-0.24c-0.8-0.18-1.6-0.37-2.44-0.6l-3.14-0.85-11.24-3.06-254.63-69.37L236.6 593a47.37 47.37 0 0 1 0.54 7.14c0 9.7 8.25 17.6 18.39 17.6h87.77c28.58 0 51.82 22.18 51.82 49.43v67c0 28.18 24 51.11 53.5 51.11h105.32c29.5 0 53.49-22.93 53.49-51.11v-67c0-27.26 23.25-49.43 51.82-49.43H747c10.14 0 18.39-7.89 18.39-17.6v-112l-240 65.32z m153.32-424.81a151.73 151.73 0 0 1-11.41-95.89 458.8 458.8 0 0 0-46.71 10.52l-0.21 0.06-12.27 3.34a474.25 474.25 0 0 1-64.55 13.64V480.64l245.69-66.87L861.64 387l0.6-0.19a17.72 17.72 0 0 0 11.53-21.63l-62.7-141a173 173 0 0 1-29.07-4.32c-49.79-11.86-90.76-45.2-111.46-89.04zM815.35-27a107.79 107.79 0 0 0-78.83 33.71 97.89 97.89 0 0 0-26.92 67.15c0 55.62 47.44 100.87 105.75 100.87a109.76 109.76 0 0 0 37.18-6.44c40-14.38 68.57-51.28 68.57-94.43 0-55.62-47.44-100.86-105.75-100.86z"  horiz-adv-x="1024" />

    
    <glyph glyph-name="tianjia-" unicode="&#59012;" d="M512 44a40.72 40.72 0 0 0-40.72 40.72V343.28H212.72A40.72 40.72 0 0 0 172 384a40.72 40.72 0 0 0 40.72 40.72h258.56V683.28A40.72 40.72 0 0 0 512 724a40.72 40.72 0 0 0 40.72-40.72v-258.56h258.56A40.72 40.72 0 0 0 852 384a40.72 40.72 0 0 0-40.72-40.72H552.72v-258.56A40.72 40.72 0 0 0 512 44z"  horiz-adv-x="1024" />

    
    <glyph glyph-name="Activities-1" unicode="&#59013;" d="M336.59 626.79c27.94 0 32.16 17 32.16 17C390.63 703 446.38 744.92 512 744.92s121.38-42.06 143.26-101.12c0 0 4.61-19.51 31.63-19.51s26.89 19.51 26.89 19.51C689.92 734.9 608.74 802 512 802s-177.91-67.1-201.76-158.2c0 0-1.45-17.01 26.35-17.01zM724.94 254.11V362h-311v-0.6h-77.65v-107.71h-58.57V361.4H102v-323.13c0.09-39.61 26.26-71.69 58.57-71.81h253.37v-0.46h455c29.27 0 53 29.09 53 65V362h-139v-107.89zM782.94 420v-29H884l0.18-0.2H922V537.23a58.74 58.74 0 0 1-58.57 58.57H160.57A58.74 58.74 0 0 1 102 537.23V390.8h175.72v29.28h58.57v-29.28h155l0.18 0.2h233.47v29z"  horiz-adv-x="1024" />

    
    <glyph glyph-name="QuotationTEU1" unicode="&#59014;" d="M529.75 571.32c47.32 0 86.76 43.38 86.76 86.76 0 27.61-15.77 51.27-31.55 71 0-3.95 3.94-7.89 3.94-19.72 0-31.55-27.61-59.16-59.15-59.16s-59.16 27.61-59.16 59.16v15.76c-19.72-19.72-27.61-43.38-27.61-67-3.95-47.32 39.44-86.76 86.76-86.76z m0 114.37c31.55 0 55.21 27.61 55.21 59.15S557.35 804 529.75 804s-55.21-27.61-55.21-59.16c-7.89-31.55 19.72-59.15 55.21-59.15zM115.66 149.35l142-55.21c-7.89 23.66-55.21 374.65-55.21 374.65zM687.49-36l7.89 134.08-311.55-31.54z m90.7 757.18L624.4 697.52c7.89-19.71 15.77-35.49 15.77-55.21 0-67-51.27-118.31-110.42-118.31-67 0-110.42 51.27-110.42 118.31 0 7.89 0 19.72 3.94 23.66l-185.35-27.6c3.94-181.41 86.76-540.29 86.76-540.29l583.66 102.54C865 240.05 778.2 721.18 778.2 721.18zM340.45 437.24l248.45 35.49 7.89-27.61-248.45-35.49c3.95 0-7.89 27.61-7.89 27.61z m51.27-209l-7.89 31.55 307.61 47.31 7.89-31.55zM375.94 315l-15.77 31.55 398.31 51.25 15.77-31.55c-3.94 0-398.31-51.27-398.31-51.27z m0 0"  horiz-adv-x="1024" />

    
    <glyph glyph-name="Activities-2" unicode="&#59015;" d="M687.33 431.94c-129.2 0-233.94-104.74-233.94-233.94s104.74-233.95 233.94-233.95a233.94 233.94 0 1 1 0 467.88z m152-168.76L674.25 98.07a24.67 24.67 0 0 0-34.73 0L535.31 202.3A24.56 24.56 0 1 0 570 237l87-87 147.88 147.92a24.67 24.67 0 0 0 34.73 0 25 25 0 0 0-0.3-34.74zM468.54 344.77H336.29v-87.86h-58.57v87.86H102V81.2a58.74 58.74 0 0 1 58.57-58.57h330.71a263.57 263.57 0 0 0-22.74 322.14zM863.43 579.05H160.57A58.74 58.74 0 0 1 102 520.48v-146.42h175.72v29.28h58.57v-29.28h155a263.57 263.57 0 0 0 392.86 0H922V520.48a58.74 58.74 0 0 1-58.57 58.57zM336.59 628.74c27.94 0 32.16 17 32.16 17 21.88 59.2 77.63 101.12 143.25 101.12s121.38-42.06 143.26-101.12c0 0 4.61-19.51 31.63-19.51s26.89 19.51 26.89 19.51c-23.86 91.1-105 158.2-201.77 158.2s-177.91-67.1-201.77-158.2c0 0.01-1.45-17 26.35-17z"  horiz-adv-x="1024" />

    
    <glyph glyph-name="Pre-Booking-" unicode="&#59016;" d="M327.68 582.69h291.39c13.88 0 22.52 12.1 22.52 22.52v69.41c0 13.89-10.41 22.52-22.52 22.52h-13.89c-13.88 0-22.52 12.1-22.52 22.52A42.89 42.89 0 0 1 539.32 763H410.9a42.89 42.89 0 0 1-43.34-43.34c0-13.88-10.41-22.52-22.52-22.52h-15.58c-13.88 0-22.52-12.11-22.52-22.52v-69.42c-1.86-13.8 8.56-22.51 20.74-22.51z m147.39 138.83c27.76 0 46.81-22.52 46.81-48.59 0-31.24-22.52-48.59-46.81-48.59s-46.82 22.52-46.82 48.59 22.52 48.59 46.82 48.59zM489.4 145.11l-1.13-9.11-7.79-62.86a6 6 0 0 1 5.89-6.68 6.07 6.07 0 0 1 0.86 0.06l61.11 8.76 10.7 1.53a2 2 0 0 1 1.12 3.42l-66.52 68.47a0.87 0.87 0 0 1-0.64 0.3c-1.34 0-3.43-2.49-3.6-3.89zM834.89 406a49.58 49.58 0 0 1-69.87 0.55l-7.02-6.98-9.43-9.28-2.32-2.29 68.85-70.81 1.35 1.32 9.53 9.37 8.37 8.24a49.47 49.47 0 0 1 0.54 69.88zM735.14 380.87l-9.68-9.18-43.59-41.32-30.34-28.76-140.34-133.05-9.23-8.74 70.22-70.97 8.52 8.12 70.83 67.59 30.34 28.95 112.37 107.23 9.57 9.13 1.55 1.48-68.06 71.56-2.16-2.04zM592.52 61.49l-134.76-15.17a14.84 14.84 0 0 0-16.19 17.77L464 171.91a14.84 14.84 0 0 0 4.11 7.54l300 296v159.3c1.86 26-17.27 52.06-46.73 52.06h-13.85c-13.88 0-24.3-8.63-24.3-22.52v-102.35c0-13.88-10.41-22.52-22.52-22.52L286 536c-13.88 0-22.52 12.1-22.52 22.52V660.74c0 13.88-10.41 22.52-22.52 22.52H227c-36.4 3.47-52.06-20.83-52.06-52.06v-565.5c0-26 24.3-60.7 57.22-60.7h478.76c27.77 0 57.23 31.24 57.23 60.7l0.46 159.3L600.7 65.13a14.84 14.84 0 0 0-8.18-3.64zM287.81 426.16A15.14 15.14 0 0 0 303 441.31h337.23a15.14 15.14 0 0 0 15.15-15.15v-0.76a15.14 15.14 0 0 0-15.15-15.15H303a15.14 15.14 0 0 0-15.15 15.15z m15.57-92.36h182.1a15.57 15.57 0 1 0 0-31.15H303.39a15.57 15.57 0 0 0 0 31.15z m88.3-142h-88.3a15.58 15.58 0 0 0 0 31.16h88.3a15.58 15.58 0 0 0 0-31.16z"  horiz-adv-x="1024" />

    
    <glyph glyph-name="Activities-3" unicode="&#59017;" d="M687.71 434.91c-129.39 0-234.29-104.9-234.29-234.29s104.9-234.29 234.29-234.29S922 71.24 922 200.63 817.1 434.91 687.71 434.91z m190.93-208.24a43.93 43.93 0 0 0-42.23-31.81 43.83 43.83 0 0 0-18.63 4.15l-41.12-41.12a43.93 43.93 0 1 0-75.45 0L636.16 223a43.73 43.73 0 0 0-19.51 0l-39.55-39.54a43.92 43.92 0 1 0-22.28 19.14l36.61 36.61a43.93 43.93 0 1 0 69.9 0l62.53-62.53a44.15 44.15 0 0 0 30.14 0l42.9 42.9a43.93 43.93 0 1 0 81.72 7.1zM863.43 581.34H160.57A58.74 58.74 0 0 1 102 522.77v-146.43h175.72v29.29h58.57v-29.28h155a263.58 263.58 0 0 0 392.87 0H922V522.77a58.74 58.74 0 0 1-58.57 58.57zM468.54 347.06H336.29v-87.86h-58.57v87.86H102v-263.57a58.74 58.74 0 0 1 58.57-58.57h330.71a263.57 263.57 0 0 0-22.74 322.14zM336.59 626.45c27.94 0 32.16 17 32.16 17 21.88 59.2 77.63 101.13 143.25 101.13s121.38-42.06 143.26-101.12c0 0 4.61-19.51 31.63-19.51s26.89 19.51 26.89 19.51c-23.86 91.1-105 158.2-201.77 158.2s-177.91-67.1-201.77-158.2c0 0-1.45-17.01 26.35-17.01z"  horiz-adv-x="1024" />

    
    <glyph glyph-name="Pre-Booking-1" unicode="&#59018;" d="M283.5 647.53a31 31 0 1 1 31-31 31 31 0 0 1-31 31zM283.5 533.94a31 31 0 1 1 31-31 31 31 0 0 1-31 31zM305.4 411.3a31 31 0 1 1 9.07-21.9 31.36 31.36 0 0 1-9.07 21.9zM674.46 616.58c0 15.43-15.35 27.95-34.31 27.95H385.09c-18.93 0-34.31-12.51-34.31-27.95s15.38-28 34.31-28h255c19.03 0.02 34.38 12.53 34.37 28zM662.46 503c0 15.45-14.78 28-33 28H383.82c-18.23 0-33-12.54-33-28s14.81-28 33-28h245.59c18.28 0 33.05 12.53 33.05 28zM588.46 389.39c0 15.48-11.27 28-25.19 28H376c-13.9 0-25.19-12.51-25.19-28s11.29-28 25.19-28h187.26c13.94 0.04 25.21 12.61 25.2 28zM283.5 313.85a31 31 0 1 1 21.9-9.07 31.35 31.35 0 0 1-21.9 9.07zM373.91 310.84c-8.34 0-15.12-12.51-15.12-28s6.78-28 15.12-28h112.42c8.37 0 15.13 12.52 15.13 28s-6.77 28-15.12 28zM726.51 214.06v-129.78A51.6 51.6 0 0 0 675 32.73c-46 0-69.57 9.82-69.57 110.86H191.46V683.74A51.58 51.58 0 0 0 243 735.29h506.2c-13.63-21.6-22.12-54.29-22.49-100.94a29.51 29.51 0 0 1-0.2-3v-134.7l34.4 32.61V631.3h132.46c0 101-37.31 138.35-83.37 138.35H243a86 86 0 0 1-85.92-85.93v-540.15H73.54c0-126.15 46.56-145.23 104-145.23H675a86 86 0 0 1 85.94 85.93v207l-34.4-32.82zM542.66 277.85l-1.27-10.28-8.83-71.28a6.75 6.75 0 0 1 6.68-7.57 6.89 6.89 0 0 1 1 0.07l69.3 9.93 12.13 1.74a2.28 2.28 0 0 1 1.27 3.88L547.49 282a1 1 0 0 1-0.72 0.29c-1.54-0.02-3.91-2.85-4.11-4.44zM934.43 573.64a56.22 56.22 0 0 1-79.22 0.62l-8-7.88-10.7-10.52-2.59-2.55L912 473l1.53 1.5 10.8 10.63 9.49 9.34a56.1 56.1 0 0 1 0.61 79.17zM821.31 545.18l-10.98-10.41-49.42-46.85-34.4-32.61-159.14-150.86-10.46-9.91 79.63-80.48 9.65 9.21 80.32 76.64 34.4 32.83 127.42 121.58 10.85 10.36 1.76 1.68-77.18 81.14-2.45-2.32z"  horiz-adv-x="1024" />

    
    <glyph glyph-name="sousuo" unicode="&#59019;" d="M369.16 668.41a281.93 281.93 0 0 1-45.21-24.34 269.91 269.91 0 0 1-39.07-32.63 251 251 0 0 1-32.66-39.6 242.89 242.89 0 0 1-24.34-44.94 22.1 22.1 0 0 1 12-29.42 22.63 22.63 0 0 1 29.44 11.76 224.22 224.22 0 0 0 47.09 70.08 227.81 227.81 0 0 0 32.9 27.29 240 240 0 0 0 37.19 20.33 22.23 22.23 0 0 1 12.33 29.42 23 23 0 0 1-29.71 12.06z m581.9-669.84L788.12 160.94a412 412 0 0 1 64 105.39c20.33 48.68 31 101.65 31 157.29a405.09 405.09 0 0 1-30.5 154.89l-0.55 1.89A412.94 412.94 0 0 1 764.85 712l-2.16 1.89A410.39 410.39 0 0 1 62 423.63a413.21 413.21 0 0 1 30.23-155.17l0.79-2.16a412 412 0 0 1 222.33-222h0.55a408.24 408.24 0 0 1 313.54 0 394.48 394.48 0 0 1 105.42 63.67l163.21-163.21a37.3 37.3 0 0 1 53 0.55 37.85 37.85 0 0 1 0 53.27z m-241.32 188v-0.27l-0.55-0.55a334.85 334.85 0 0 0-364.94-72c-41.2 16.59-77.87 41.73-108.62 72.48l-0.27 0.27h0.27a336.69 336.69 0 0 0-73.34 108.88l-0.55 1.85a337.79 337.79 0 0 0 0.52 254.42 345.29 345.29 0 0 0 73.34 108.98 335.48 335.48 0 0 0 365.22 72.78 329.43 329.43 0 0 0 108.89-72.78l2.16-1.61a341.76 341.76 0 0 0 70.63-107.27l1.09-1.88c15.25-38.54 24.61-81.6 24.61-126.27a331.84 331.84 0 0 0-25.67-128.12 326.88 326.88 0 0 0-72.79-108.86z m5.89 259.49a22.61 22.61 0 0 1-22.48-22.46 218.42 218.42 0 0 0-16.58-84.54L676 338c-11-25.16-26.22-49.5-47.63-70.1a213.41 213.41 0 0 0-71.43-48.14 217.35 217.35 0 0 0-84.55-16.59c-12.58 0-22.18-10.15-22.18-22.73s9.63-22.73 22.18-22.73a267.54 267.54 0 0 1 101.93 20.33 254.48 254.48 0 0 1 86.16 57.8 266.46 266.46 0 0 1 57.27 85.06v0.79a261.67 261.67 0 0 1 20.87 101.92c0 12.28-10.42 22.46-23 22.46z m0 0"  horiz-adv-x="1024" />

    
    <glyph glyph-name="yizhankai1" unicode="&#59020;" d="M512 844C257.95 844 52 638.05 52 384s205.95-460 460-460 460 205.95 460 460S766.05 844 512 844z m270-460a44 44 0 0 0-44-44H286a44 44 0 0 0-44 44 44 44 0 0 0 44 44h452a44 44 0 0 0 44-44z"  horiz-adv-x="1024" />

    
    <glyph glyph-name="weizhankai1" unicode="&#59021;" d="M512 844C257.95 844 52 638.05 52 384s205.95-460 460-460 460 205.95 460 460S766.05 844 512 844z m270-460a44 44 0 0 0-44-44H556v-182a44 44 0 0 0-44-44 44 44 0 0 0-44 44V340H286a44 44 0 0 0-44 44 44 44 0 0 0 44 44h182V610a44 44 0 0 0 44 44 44 44 0 0 0 44-44v-182h182a44 44 0 0 0 44-44z"  horiz-adv-x="1024" />

    
    <glyph glyph-name="zhuyemian" unicode="&#59022;" d="M885.75 499.51v53.72L586.85 824H231.91c-51.59 0-93.41-37.88-93.41-84.62v-237a99.14 99.14 0 0 1-0.6-10.73v-449a99.14 99.14 0 0 1 0.6-10.73v-3.22c0-46.73 41.82-84.61 93.4-84.61h248l-0.14 0.49H788a98.08 98.08 0 0 1 98.08 98.08v449c0.01 2.61-0.08 5.24-0.33 7.85zM237.4 694.43a34.9 34.9 0 1 0 34.9 34.9 34.9 34.9 0 0 0-34.9-34.9z m144.77 0a34.9 34.9 0 1 0 34.9 34.9 34.9 34.9 0 0 0-34.91-34.9z m144.77 0a34.9 34.9 0 1 0 34.9 34.9 34.91 34.91 0 0 0-34.91-34.9z"  horiz-adv-x="1024" />

    
    <glyph glyph-name="ziyemian" unicode="&#59023;" d="M659.43 706.68l-0.08 0.08zM753.16 691.74l-0.09 0.08 0.1-0.1zM582.07 818.13l-5.89 5.32V507.8H883.1c-2.18 17.7-258.66 270.33-301.03 310.33zM886.09 460.65H511.38V824H231.91c-51.59 0-93.41-37.88-93.41-84.62v-237a99.14 99.14 0 0 1-0.6-10.73v-449a99.14 99.14 0 0 1 0.6-10.73v-3.22c0-46.73 41.82-84.61 93.4-84.61h248l-0.14 0.49H788a98.06 98.06 0 0 1 87.61 54q1.15 2.28 2.18 4.62a97.71 97.71 0 0 1 8.27 39.42zM875.63-1.5z"  horiz-adv-x="1024" />

    
    <glyph glyph-name="dangtian" unicode="&#59024;" d="M512 709.76c-226.44 0-410-129-410-288.05s183.56-276 410-276c34.43 0 67.7-2.71 78.38-2.71 5.35 0 0 12.06-12.06 12.06s-24.11 3.64-66.32 3.64c-203.79 0-369 116.07-369 259.3s165.21 259.2 369 259.2S881 561.13 881 418c0-158.21-176.56-283.2-218-319.21-7.79-6.77-34-44.5-14.33-40.16C684.52 66.49 922 263.58 922 421.71c0 159.08-183.56 288.05-410 288.05z"  horiz-adv-x="1024" />

    
    <glyph glyph-name="copy" unicode="&#59025;" d="M273.69 736h457.4v38.14c0 27.54-23 49.86-51.27 49.86H193.27C165 824 142 801.68 142 774.14V150.4c0-27.54 23-49.86 51.27-49.86h29.15V686.15c0 27.54 22.96 49.85 51.27 49.85zM830.73 667.46H344.18c-28.32 0-51.27-22.32-51.27-49.86v-623.74c0-27.54 23-49.86 51.27-49.86h486.55C859-56 882-33.68 882-6.14V617.6c0 27.54-23 49.86-51.27 49.86zM399 485.46a9.61 9.61 0 0 0 9.71 9.44h224.82a9.61 9.61 0 0 0 9.71-9.44v-36.84a9.61 9.61 0 0 0-9.71-9.44H408.67a9.61 9.61 0 0 0-9.71 9.44z m0-164.58a10.94 10.94 0 0 0 11 10.76h294.57a10.94 10.94 0 0 0 11.06-10.75v-34.22a10.94 10.94 0 0 0-11.06-10.75H410a10.94 10.94 0 0 0-11 10.75z m377-192.6a11.94 11.94 0 0 0-12.06-11.73H411a11.94 11.94 0 0 0-12 11.74v32.26a11.94 11.94 0 0 0 12 11.73h352.88a11.94 11.94 0 0 0 12.06-11.73z"  horiz-adv-x="1024" />

    
    <glyph glyph-name="piliangtianjia" unicode="&#59026;" d="M333.44 759.53h365.47c14.41 0 26.11 14.44 26.11 32.24S713.32 824 698.91 824H333.44c-9.33 0-17.94-6.14-22.61-16.11a38.87 38.87 0 0 1 0-32.24c4.66-10 13.28-16.12 22.61-16.12zM229 653.8h574.3c14.42 0 26.11 14.43 26.11 32.23s-11.69 32.23-26.11 32.23H229c-14.42 0-26.11-14.43-26.11-32.23S214.61 653.8 229 653.8zM785.05 619.63h-546.1C174.36 619.63 122 555 122 475.22v-386.81C122 8.65 174.36-56 238.95-56h546.1C849.64-56 902 8.65 902 88.41V475.22c0 79.78-52.36 144.41-116.95 144.41zM712.5 280.38a28.07 28.07 0 0 0-28.07-28.07H541.5v-162.5a29.5 29.5 0 1 0-59 0V252.32H339.57a28.07 28.07 0 0 0-28.07 28.07v2.87a28.07 28.07 0 0 0 28.07 28.07H482.5V473.82a29.5 29.5 0 0 0 59 0v-162.5h142.93a28.07 28.07 0 0 0 28.07-28.07z"  horiz-adv-x="1024" />

    
    <glyph glyph-name="piliang" unicode="&#59027;" d="M329.27 759.53h365.46c14.41 0 26.11 14.44 26.11 32.24S709.15 824 694.73 824H329.27c-9.33 0-17.94-6.14-22.61-16.11a38.87 38.87 0 0 1 0-32.24c4.66-10 13.28-16.12 22.61-16.12zM224.85 659.8h574.3c14.42 0 26.11 14.43 26.11 32.23s-11.69 32.23-26.11 32.23h-574.3c-14.42 0-26.11-14.43-26.11-32.23s11.69-32.23 26.11-32.23zM785.05 619.63h-546.1C174.36 619.63 122 555 122 475.22v-386.81C122 8.65 174.36-56 238.95-56h546.1C849.64-56 902 8.65 902 88.41V475.22c0 79.78-52.36 144.41-116.95 144.41z m-127.74-333.4a29.5 29.5 0 0 0-41.72 0l-74.09 74.09v-248.23a29.5 29.5 0 0 0-59 0V360.32l-74.09-74.09A29.5 29.5 0 0 0 366.69 328l124.45 124.4a29.5 29.5 0 0 0 41.72 0L657.31 328a29.5 29.5 0 0 0 0-41.77z"  horiz-adv-x="1024" />

    
    <glyph glyph-name="piliangdaoru" unicode="&#59028;" d="M179.5 87.94V712.06A71.94 71.94 0 0 0 251.44 784h480.12a71.69 71.69 0 0 0 26.78-5.17A72 72 0 0 1 691.56 824H211.44a71.94 71.94 0 0 1-71.94-71.94v-624.12a72 72 0 0 1 45.17-66.79 71.7 71.7 0 0 0-5.17 26.79zM812.06-10.25C792.11-33 765-45.87 736.6-46c-29.21 0-53.55 11-75.46 35.75L554 113.5C539.43 130 529.69 152 524.82 174c-2.44 8.25-2.44 16.5-2.44 24.71s0 16.5 2.44 24.71c4.87 22 14.6 44 29.21 60.5l109.5 123.84c19.89 22.86 47.08 35.74 75.46 35.74s55.57-12.88 75.46-35.74c13-14.7 36.87-49 51.28-70.17V640.06A71.94 71.94 0 0 1 793.8 712H313.67a71.94 71.94 0 0 1-71.94-71.94v-624.12A71.94 71.94 0 0 1 313.67-56H793.8a71.94 71.94 0 0 1 71.94 71.94v46.84c-13.56-20.78-38.37-57.66-53.68-73.03zM845.5 239.75H708.71L763 294.09A36 36 0 0 1 712.13 345L593.34 226.2a36 36 0 0 1 0-50.91L712.13 56.5A36 36 0 0 1 763 107.41l-54.34 54.34H845.5a39 39 0 0 1 39 39 39 39 0 0 1-39 39z"  horiz-adv-x="1024" />

    
    <glyph glyph-name="xia" unicode="&#59063;" d="M285.6 33.5l213.6 284.7H359.9V734.5H211.3v-416.2H72l213.6-284.8z m286.2 700.6H952v-85.4H571.8v85.4z m0-239.2h303.3v85.4H571.8v-85.4z m0-153.8h226.4v85.4H571.8v-85.4z m0-153.8h149.5v85.4H571.8v-85.4z m0-153.8h72.6V119h-72.6v-85.5z m0 0"  horiz-adv-x="1024" />

    
    <glyph glyph-name="shang" unicode="&#59064;" d="M285.6 734.5L72 449.8h139.3v-416.2H360V449.8h139.2L285.6 734.5z m286.2-615.1H952V34H571.8v85.4z m0 68.3h303.3v85.4H571.8v-85.4z m0 153.8h226.4v85.4H571.8v-85.4z m0 153.8h149.5v85.4H571.8v-85.4z m0 153.7h72.6v85.4h-72.6V649z m0 85.5"  horiz-adv-x="1024" />

    
    <glyph glyph-name="biaojiwancheng" unicode="&#59082;" d="M782 654L396.28 268.28 242 422.57l-77.14-77.15 115.71-115.71L396.28 114l462.86 462.86L782 654z"  horiz-adv-x="1024" />

    
    <glyph glyph-name="piliangbianji-" unicode="&#59091;" d="M783.48 50h-543A62.48 62.48 0 0 0 178 112.5V663.31h-35.71A70.38 70.38 0 0 1 72 593v-578.74A70.38 70.38 0 0 1 142.29-56H721a70.38 70.38 0 0 1 70.28 70.28V50zM939.06 792l-8.64 6.35a54 54 0 0 1-17.57 12.92l-12 8.83c-6.21 1.8-12.35 3.88-19.13 3.88H303a70.38 70.38 0 0 1-70.28-70.29V175A70.38 70.38 0 0 1 303 104.71h578.71A70.38 70.38 0 0 1 952 175V753.72c0 14.45-5.43 27.13-12.94 38.28zM436.83 291.36l42.22 112.59 67.11-66z m126.66 56.3l-72 74.69 200.82 198.13 69.3-71.48z m255.19 256c-9.4-10.57-40-41.41-40-41.41l-72.53 72.25 35.72 35.73s16.25 15.41 37.37 0 39.44-35.73 39.44-35.73 9.4-20.29 0-30.86z"  horiz-adv-x="1024" />

    
    <glyph glyph-name="piliangbianji-1" unicode="&#59092;" d="M255.07 643.52H756V598h45.56v91.07h-592v-592h91.04v45.55h-45.55V643.55zM120.14 778.45h500.91v-45.52h45.55V824h-592v-592h91.07v45.55h-45.55V778.48z m0 0M875 570.71H390.6a58.58 58.58 0 0 1-58.6-58.58v-493.74A74.38 74.38 0 0 1 406.41-56H875a74.38 74.38 0 0 1 74.38 74.39V496.33A74.38 74.38 0 0 1 875 570.71zM689.58 374.83l50.45-52-144.22-146.6-52.42 54.36zM534.33 217.2l48.86-48.06-79.59-33.9z m218.86-118.51H496.81v19.64h256.38z m28.38 263.87c-6.84-7.69-29.11-30.14-29.11-30.14L699.66 385l26 26s11.84 11.22 27.21 0 28.71-26 28.71-26 6.84-14.74-0.01-22.44z"  horiz-adv-x="1024" />

    
    <glyph glyph-name="yonghu" unicode="&#59093;" d="M747.05 549.53c0-128.68-104.32-233-233-233s-233 104.32-233 233 104.32 233 233 233 233-104.32 233-233z m-40.7-243.98A310.68 310.68 0 0 0 320 306.92c-143.78-52.78-208-237.24-208-321.48h800c0 83.49-64.71 266.65-205.65 320.08z m0 0"  horiz-adv-x="1024" />

    
    <glyph glyph-name="mima" unicode="&#59094;" d="M811.75 403.42c-0.08 40.47-25.59 75.7-62.33 87.39-14.27 4.56-29.08 5.24-44 4.56-6.6-0.3-10.33-0.61-9.56 9.42a632.48 632.48 0 0 1 1.05 74c-3.49 81.24-60.28 149.73-140.31 170.61-75.93 19.81-157.25-13.52-200.9-80.71-34.93-53.6-30.29-112.6-27.49-173.34-10.25 0-19.51 0.22-28.7 0-48.37-1.29-86.93-39.56-87.17-87.84q-0.68-152 0-304.08c0.3-49.28 38.64-89.6 87.63-89.89q213.19-1.37 426.47 0c47.3 0.3 85 40.16 85.27 87.61q0.58 151.1 0 302.25z m-253.29-152c-7.44-5.61-9.72-10.94-9.49-19.66 0.53-22.17 0.38-44.42 0.16-66.59-0.38-25.59-14.88-41-37.81-40.62-22.1 0.3-35.92 15.49-36.29 40.24-0.23 13-0.38 25.89 0 38.88 0.68 22.56-0.08 41.61-20.42 59.83-21.95 19.73-22.32 49.72-9.42 77.29 13.36 28.4 36.9 41.61 62.26 43.43 36.22-0.38 65.14-21.79 75.09-51.56s0.91-62.32-24.07-81.24z m51.48 243.73c-32.12 0.61-64.24 0.23-96.35 0.23-32.73 0-65.52 0.68-98.25-0.3-12.76-0.39-15.26 4-14.8 15.56 0.91 19.75 0.08 39.56 0.3 59.3 0.69 61.81 49.35 110.63 110.48 110.93s110.63-48 111.92-109.79c0.45-21-0.61-42.07 0.3-63 0.46-11.08-3.66-13.08-13.61-12.94z m0 0"  horiz-adv-x="1024" />

    
    <glyph glyph-name="xuanzhong" unicode="&#59095;" d="M822.144 832C898.304 832 960 770.304 960 694.144v-620.288C960-2.304 898.304-64 822.144-64H201.856A137.856 137.856 0 0 0 64 73.856V694.144C64 770.304 125.696 832 201.856 832h620.288zM697.856 551.168L424.832 278.08 319.744 383.168A34.432 34.432 0 1 1 271.04 334.4l129.408-129.408c13.44-13.44 35.264-13.44 48.704 0L746.56 502.4a34.432 34.432 0 0 1-48.704 48.768z"  horiz-adv-x="1024" />

    


  </font>
</defs>
</svg>
